<?xml version="1.0" encoding="UTF-8"?><svg id="Layer_1" xmlns="http://www.w3.org/2000/svg" viewBox="0 0 1016.39 1020"><path d="M269.49,386.61c14.36-28.24,37.1-53.87,67.22-63.71,30.12-9.84,67.8.21,83.02,28,14.2,25.92,6.16,58.18-5.18,85.47-30.32,73.05-82.45,136.89-147.96,181.21,11.79-18.85,39.24-20.69,60.21-13.32,20.97,7.38,39.16,21.49,60.4,28.09,21.23,6.6,48.93,2.49,58.55-17.55" fill="none" stroke="#000" stroke-linecap="round" stroke-linejoin="round" stroke-width="20"/><path d="M678,624.3c-3.61-107.49,2.32-215.31,17.7-321.76-65.78,74.98-125.1,155.62-177.09,240.74,76.13-1.83,152.26-3.65,228.38-5.48" fill="none" stroke="#000" stroke-linecap="round" stroke-linejoin="round" stroke-width="20"/><path d="M565,718.06c5.05,37.71,10.1,75.41,15.15,113.12l-15.15-113.12Z" fill="none" stroke="#000" stroke-linecap="round" stroke-linejoin="round" stroke-width="20"/><path d="M571.45,747.58c13.27-24.65,43.46-38.91,70.93-33.5" fill="none" stroke="#000" stroke-linecap="round" stroke-width="20"/><path d="M421.37,682.08c11.14,50.76,14.54,103.2,10.04,154.97" fill="none" stroke="#000" stroke-linecap="round" stroke-width="20"/><path d="M430.55,745.96c6.43-17.72,29.72-25.27,47.26-18.37,17.54,6.9,28.95,24.74,32.85,43.18,3.9,18.44,1.41,37.58-1.77,56.16" fill="none" stroke="#000" stroke-linecap="round" stroke-linejoin="round" stroke-width="20"/><path d="M231.95,166.61c.73-30.77-14.94-61.47-40.29-78.92-17.79-12.25-42.88-23.03-42.73-44.63.09-12.93,10.63-23.93,22.66-28.67,12.03-4.74,25.36-4.54,38.3-4.27,69.96,1.46,139.91,2.92,209.87,4.38,20.25.42,43.58,2.4,55.28,18.92,8.54,12.06,7.83,28.82,1.86,42.35-5.97,13.52-16.42,24.48-26.85,34.95-53.54,53.71-112.13,102.4-174.74,145.2-9.9,6.77-23.7,13.31-32.91,5.61-5.89-4.93-6.74-13.51-7.16-21.18-1.64-30.38-3.59-60.76-3.28-73.74Z" fill="none" stroke="#000" stroke-linecap="round" stroke-linejoin="round" stroke-width="20"/><path d="M787.09,205.52c14.65,1.39,26.79,15.82,25.65,30.5-1.14,14.67-15.36,27.06-30.05,26.17-14.69-.89-27.32-14.89-26.68-29.6s14.49-28.65,31.09-27.07Z" fill="none" stroke="#000" stroke-linecap="round" stroke-linejoin="round" stroke-width="20"/><path d="M900.79,493.72c-4.4,3.65-8.8,7.29-13.2,10.94-8.74,15.88,3.5,38.89,21.56,40.51,18.06,1.62,34.2-18.84,28.43-36.02-5.77-17.18-28.98-21.89-36.78-15.43Z" fill="none" stroke="#000" stroke-linecap="round" stroke-linejoin="round" stroke-width="20"/><path d="M785.41,798.52c-14.38,4.13-22.66,22.28-16.61,35.96,6.05,13.68,24.74,19.82,37.87,12.65,13.12-7.18,18.1-25.93,10.52-38.82-7.58-12.89-26.1-17.71-31.77-9.78Z" fill="none" stroke="#000" stroke-linecap="round" stroke-linejoin="round" stroke-width="20"/><path d="M500.06,898.76c14.45,1.93,25.98,16.5,24.55,31-1.44,14.5-15.61,26.53-30.15,25.59s-27.05-14.69-26.6-29.26c.44-14.57,13.92-29.78,32.21-27.34Z" fill="none" stroke="#000" stroke-linecap="round" stroke-linejoin="round" stroke-width="20"/><path d="M172.06,806.11c2.48-16.99,25.13-27.18,39.48-17.76,14.35,9.42,14.02,34.25-.58,43.29-14.6,9.03-42.35-1.92-38.9-25.53Z" fill="none" stroke="#000" stroke-linecap="round" stroke-linejoin="round" stroke-width="20"/><path d="M61.17,513.52c-5.39,12.14,3.71,28.16,16.87,29.97,13.16,1.81,26.18-10.87,24.94-24.09-1.24-13.22-16.1-23.25-28.89-19.67s-20.3,19.6-12.92,13.78Z" fill="none" stroke="#000" stroke-linecap="round" stroke-linejoin="round" stroke-width="20"/><path d="M153.82,246.23c8.35-15.43,34.01-16.7,43.83-2.16,9.82,14.54-.93,37.87-18.37,39.85-17.43,1.98-35.36-19.39-25.46-37.69Z" fill="none" stroke="#000" stroke-linecap="round" stroke-linejoin="round" stroke-width="20"/><path d="M226.71,134.02C117.35,187.49,43.64,299.86,19.38,419.14c-33.55,164.98,24.55,345.6,147.99,460.08,123.44,114.48,307.93,158.81,469.92,112.94,55.81-15.81,108.68-41.49,156.42-74.42,57.08-39.38,107.13-89.44,143.94-148.21,85.29-136.16,91.76-318.07,16.36-459.94s-229.78-238.3-390.35-243.8" fill="none" stroke="#000" stroke-linecap="round" stroke-linejoin="round" stroke-width="20"/></svg>