<?xml version="1.0" encoding="UTF-8"?><svg id="Layer_1" xmlns="http://www.w3.org/2000/svg" viewBox="0 0 1000 1000"><circle cx="500" cy="500" r="500" fill="#7d7"/><path d="M462.5,500.02c13.81,0,25,11.19,25,25s-11.19,25-25,25h-75c-13.81,0-25-11.19-25-25s11.19-25,25-25h75ZM612.5,425.02c0-13.81-11.19-25-25-25h-200c-13.81,0-25,11.19-25,25s11.19,25,25,25h200c13.81,0,25-11.19,25-25ZM387.5,350.01h200c13.81,0,25-11.19,25-25s-11.19-25-25-25h-200c-13.81,0-25,11.19-25,25s11.19,25,25,25ZM687.5,686.13v95.83c0,9.96-8.06,18.03-18.02,18.04-4.79,0-9.38-1.9-12.76-5.28l-19.22-19.2-19.22,19.2c-7.04,7.04-18.45,7.05-25.49,0-3.39-3.38-5.29-7.97-5.28-12.76v-95.83c-47.73-27.43-64.19-88.36-36.77-136.09,17.84-31.05,50.96-50.15,86.77-50.02,8.45.11,16.85,1.3,25,3.55v-178.56c0-41.42-33.58-75.01-75-75.01h-200c-41.42,0-75,33.58-75,75.01v300.02c0,41.42,33.58,75.01,75,75.01h125c13.81,0,25,11.19,25,25s-11.19,25-25,25h-125c-69-.08-124.92-56-125-125.01v-300.02c.08-69.01,56-124.93,125-125.01h200c69,.08,124.92,56,125,125.01v209.56c36.27,40.73,32.65,103.16-8.08,139.43-5.2,4.63-10.87,8.7-16.92,12.13h0ZM687.5,600.03c0-27.62-22.39-50-50-50s-50,22.39-50,50,22.39,50,50,50,50-22.39,50-50Z"/></svg>