<?xml version="1.0" encoding="UTF-8"?><svg id="Layer_1" xmlns="http://www.w3.org/2000/svg" viewBox="0 0 991.43 735.91"><path d="M542.18,305.31c-14.83,4.7-32.41,15.35-39.82,29.03-6.75,12.46-3.58,25.56,4.82,36.98,8.4,11.42,23.34,16.82,37.49,17.6s28.44-1.23,40.32-8.97c15.99-10.41,28.8-28.48,26.41-47.41-2.6-20.68-24.15-36.05-44.94-34.55-10.58.76-18.39,4.7-24.28,7.32Z" fill="none" stroke="#000" stroke-linecap="round" stroke-linejoin="round" stroke-width="20"/><path d="M530.07,277.93c9.2-16.01,24.6-24.93,43.06-24.87,18.47.06,36.54,10.63,45.65,26.69,8.9-9.1,25.46-4.84,33.31,5.18,7.85,10.02,9.38,23.45,10.61,36.12.96,9.85,1.89,20.05-1.24,29.44-3.13,9.39-11.46,17.81-21.36,17.76-1.2,17.81-10.7,34.88-25.2,45.28-14.5,10.4-33.72,13.93-50.97,9.37-12.78,12.08-34.39,13.31-48.46,2.76-17.03-1.81-35.17-4.08-48.24-15.14-13.07-11.07-17.13-34.26-3.48-44.6-15.22-18.49-15.89-47.47-1.53-66.64,14.35-19.17,45.09-28.24,67.83-21.35Z" fill="none" stroke="#000" stroke-linecap="round" stroke-linejoin="round" stroke-width="20"/><path d="M548.33,259.37c-2.79-23.48-34.6-41.44-58.23-42.16s-42.69,5.99-65.04,14.93c-13.68,5.47-28.25,10.19-41.55,16.52-3.95,1.88-8.22,4.08-9.92,8.11-2.99,7.08,4.26,14.84,11.82,16.2,7.56,1.36,15.21-1.23,22.86-1.95,20.06-1.89,44.27,12.73,51.81,31.41" fill="none" stroke="#000" stroke-linecap="round" stroke-linejoin="round" stroke-width="20"/><path d="M575.87,424.77c2.47,42.52,4.2,93.87,1.15,136.35-.28,3.91-.84,10.45-1.67,16.76-1.09,8.28-18.38-2.61-25.05-7.63-10.01-7.53-19.02-24.1-31.53-24.56-13.44-.5-19.57,11.29-30.52,20.14-10.15,8.2-21.09,21.85-34.01,23.67,25.22-47.84,43.41-111.28,46.28-165.29" fill="none" stroke="#000" stroke-linecap="round" stroke-linejoin="round" stroke-width="20"/><path d="M511.79,221.9c102.91-50.03,205.7-118.73,293.98-191.53,11.02-9.09,22.85-18.76,37.07-20.18,23.32-2.33,42.23,17.84,55.91,36.86,29.23,40.67,53.75,85.14,68.36,133.04s19.05,99.42,8.59,148.39c-4.89,22.86-13.97,46.41-32.92,60.1-17.55,12.68-40.34,14.71-61.87,16.99-62.41,6.62-135.73,20.24-195.89,38.1" fill="none" stroke="#000" stroke-linecap="round" stroke-linejoin="round" stroke-width="20"/><path d="M487.34,502.54c-110.33,38.91-207.04,129.31-300.9,199.15-17.07,12.7-36.37,25.5-57.6,24.11-24.57-1.6-43.7-21.66-57.56-42.01C11.58,596.14,3.02,483,14.21,377.54c1.58-14.92,3.96-30.81,14.02-41.94,14.44-15.98,38.86-16.46,60.4-16.56,96.5-.41,196.31-19.71,287.47-51.35" fill="none" stroke="#000" stroke-linecap="round" stroke-linejoin="round" stroke-width="20"/><path d="M144.65,538.21c-6.43,4.54-23.36,9.64-33.15,8.15-6.07-16.13-8.75-35.52-5.61-52.47.97-5.21,3.06-11.11,8.09-12.78,7.29-2.42,13.47,5.72,16.61,12.73,19.32,43.27,23.39,92,15.42,138.95-13.27,7.63-24.45,3.68-35.34-4.57-10.88-8.25-18-20.62-23.56-33.09-26.25-58.94-27.12-128.11-4.62-188.58,3.67-9.85,8.45-20.06,17.37-25.61,11.92-7.42,24.09-2.28,35.19,6.32s18.03,20.33,24.06,33.01c39.93,84.09,53.26,183.38,36.06,274.86" fill="none" stroke="#000" stroke-linecap="round" stroke-linejoin="round" stroke-width="20"/><path d="M115.38,480.16c14.71-8.71,42.24-20.09,58.96-23.66" fill="none" stroke="#000" stroke-linecap="round" stroke-linejoin="round" stroke-width="20"/><path d="M578.65,473.2c20.83,30.63,36.69,62.71,61.41,91.91,8.49-22.51,13.13-44.67,14.6-68.68,16.22,9.11,39.17,13.51,57.4,17.25,1.38-13.17-2.91-27.45-1.53-40.62-30.96-26.84-55.18-66.11-68.34-104.92" fill="none" stroke="#000" stroke-linecap="round" stroke-linejoin="round" stroke-width="20"/><path d="M314.67,503.82c-1.27,11.68-1.1,22.63-2.17,33.25" fill="none" stroke="#000" stroke-linecap="round" stroke-linejoin="round" stroke-width="20"/><path d="M341.94,490.28c2.47,11-3.61,19.56-7.3,30.21" fill="none" stroke="#000" stroke-linecap="round" stroke-linejoin="round" stroke-width="20"/><path d="M367.32,479.17c.66,10.29,1.83,15.24-2.32,24.09" fill="none" stroke="#000" stroke-linecap="round" stroke-linejoin="round" stroke-width="20"/><path d="M746.61,356.07c1.05,10.86.85,18.49,0,29.36" fill="none" stroke="#000" stroke-linecap="round" stroke-linejoin="round" stroke-width="20"/><path d="M287.03,524.29c-.13,11.62-.53,21.68,2.49,32.02" fill="none" stroke="#000" stroke-linecap="round" stroke-linejoin="round" stroke-width="20"/><path d="M785.38,352.66c-5.85,8.82-10.76,19.88-11.28,30.45" fill="none" stroke="#000" stroke-linecap="round" stroke-linejoin="round" stroke-width="20"/></svg>