<?xml version="1.0" encoding="UTF-8"?><svg id="Layer_1" xmlns="http://www.w3.org/2000/svg" viewBox="0 0 1020.47 1020.29"><path d="M864.04,312.39c-223.76,231.76-239.76,251.45-497.94,497.76-105.94-98.18-116.61-111.03-209.67-211.84,44.34-53.13,51.61-58.47,103.49-102.1,59.15,45.33,108.38,103.22,108.77,103.8,126.22-133.54,257.68-265.64,393.37-389.86,51.07,44.36,58.07,51.86,101.98,102.24Z" fill="none" stroke="#000" stroke-linecap="round" stroke-linejoin="round" stroke-width="20"/><path d="M1010.22,510.25c-5.46,154.58-74.13,293.54-180.55,384.66-85.58,73.28-203.14,113.92-319.45,115.34-134.55,1.64-258.17-51.66-346.59-139.61C74.41,781.89,16.35,645.85,10.22,510.25c-3.71-82.01,40.27-228.24,110.17-313.13C213.44,84.12,352.09,15.88,510.22,10.25c114.12-4.06,217.39,41.04,303.61,102.7,114.63,81.99,202.01,237.92,196.39,397.3Z" fill="none" stroke="#000" stroke-linecap="round" stroke-linejoin="round" stroke-width="20"/></svg>