<?xml version="1.0" encoding="UTF-8"?><svg id="Layer_1" xmlns="http://www.w3.org/2000/svg" viewBox="0 0 1000 1000"><circle cx="500" cy="500" r="500" fill="#7ec8e3"/><path d="M500,800c-165.43,0-300-134.57-300-300S334.57,200,500,200s300,134.57,300,300-134.57,300-300,300ZM500,250c-137.85,0-250,112.15-250,250s112.15,250,250,250,250-112.15,250-250-112.15-250-250-250ZM562.5,608.25c11.98-6.9,16.07-22.2,9.15-34.15l-46.65-80.8v-143.3c0-13.8-11.17-25-25-25s-25,11.2-25,25v150c0,4.4,1.15,8.7,3.35,12.5l50,86.6c4.65,8.03,13.02,12.5,21.67,12.5,4.25,0,8.55-1.07,12.47-3.35h0Z"/></svg>