<?xml version="1.0" encoding="UTF-8"?><svg id="Layer_1" xmlns="http://www.w3.org/2000/svg" viewBox="0 0 1021.09 908.61"><path d="M634.5,363.68c58.54,51.67,117.5,105.11,176.22,158.77,58.74,53.67,116.93,107.9,171.76,163.52,11.52,11.68,23.77,22.73,27.78,38.63,3.89,15.43-6.51,28.17-17.65,39.53-11.15,11.36-25.84,23.28-41.34,19.68-15.41-3.59-25.38-15.05-37.01-25.77-57.3-52.82-112.26-110.83-166.25-169.68-53.97-58.82-106.78-118.8-155.69-179.43" fill="none" stroke="#000" stroke-linecap="round" stroke-linejoin="round" stroke-width="20"/><path d="M520.76,514.57q-30.27,30.27-60.5,60.59c-3.11,3.11-8.22,2.65-11.33-.46q-105.4-105.4-210.83-210.76c-3.12-3.12-2.94-7.63.19-10.75q30.27-30.27,60.58-60.52c3.11-3.11,8.2-3.91,11.31-.8q105.4,105.4,210.75,210.84c3.11,3.11,2.95,8.75-.17,11.86Z" fill="none" stroke="#000" stroke-linecap="round" stroke-linejoin="round" stroke-width="20"/><path d="M800.85,234.65c-30.27,30.27-30.57,29.98-60.84,60.25-3.11,3.11-8.51,3.47-11.62.36-105.4-105.4-104.81-105.98-210.21-211.38-3.12-3.12-3.56-8.13-.44-11.25q30.27-30.27,60.52-60.57c3.11-3.11,8.03-2.52,11.14.59q105.4,105.4,210.95,210.65c3.11,3.11,3.62,8.24.51,11.35Z" fill="none" stroke="#000" stroke-linecap="round" stroke-linejoin="round" stroke-width="20"/><path d="M541.77,109.21c-77.16,55.82-151.29,128.29-206.48,207.36" fill="none" stroke="#000" stroke-linecap="round" stroke-linejoin="round" stroke-width="20"/><path d="M705.39,272.81c-57.98,73.83-154.13,170.12-207.28,206.53" fill="none" stroke="#000" stroke-linecap="round" stroke-linejoin="round" stroke-width="20"/><path d="M522.96,784.28c-4.55-22-16.54-57.78-35.84-71.89-25.8-18.85-72.46-12.14-102.93-12.14-41.26,0-81.4,2.51-122.55,2.51-30.16,0-66.82-3.92-95.21,5.14-34.06,10.86-42.1,43.83-48.34,75.21" fill="none" stroke="#000" stroke-linecap="round" stroke-linejoin="round" stroke-width="20"/><path d="M619.56,897.12c-150.48,0-150.48,1.49-300.95,1.49s-150.48-.02-300.95-.02c-3.85,0-7.65-3.4-7.65-7.25,0-46.89.99-46.89.99-93.78,0-3.85,2.81-7.71,6.66-7.71q150.48,0,300.95.17c150.48,0,150.48-.45,300.95-.45,3.85,0,8.15,4.14,8.15,7.99,0,46.89-2.28,46.89-2.28,93.78,0,3.85-2.02,5.78-5.87,5.78Z" fill="none" stroke="#000" stroke-linecap="round" stroke-linejoin="round" stroke-width="20"/></svg>