<?xml version="1.0" encoding="UTF-8"?><svg id="Layer_1" xmlns="http://www.w3.org/2000/svg" viewBox="0 0 1020 908.41"><path d="M633.67,363.95c117.11,103.35,238.64,210.73,348.3,321.95,11.52,11.68,23.13,22.99,27.14,38.9,3.89,15.43-5.47,28.56-16.62,39.92-11.15,11.36-26.3,22.49-41.8,18.89-15.41-3.59-24.9-15.36-36.54-26.09-114.57-105.63-224.31-227.49-322.14-348.79" fill="none" fill-rule="evenodd" stroke="#000" stroke-linecap="round" stroke-linejoin="round" stroke-width="20"/><rect x="327.78" y="276.61" width="101.62" height="314.11" rx="8" ry="8" transform="translate(-195.76 394.72) rotate(-45)" fill="none" stroke="#000" stroke-linecap="round" stroke-linejoin="round" stroke-width="20"/><rect x="607.79" y="-3.39" width="101.62" height="314.11" rx="8" ry="8" transform="translate(84.24 510.71) rotate(-45)" fill="none" stroke="#000" stroke-linecap="round" stroke-linejoin="round" stroke-width="20"/><path d="M541.04,109.16c-77.16,55.82-151.27,128.36-206.46,207.43" fill="none" fill-rule="evenodd" stroke="#000" stroke-linecap="round" stroke-linejoin="round" stroke-width="20"/><path d="M704.81,272.93c-57.98,73.83-154.04,170.3-207.19,206.7" fill="none" fill-rule="evenodd" stroke="#000" stroke-linecap="round" stroke-linejoin="round" stroke-width="20"/><path d="M522.55,784.29c-4.55-22-16.98-57.46-36.27-71.56-25.8-18.85-72.26-12.22-102.73-12.22-41.26,0-81.4,2.04-122.55,2.04-30.16,0-66.67-3.15-95.05,5.91-34.06,10.86-41.79,43.43-48.03,74.81" fill="none" fill-rule="evenodd" stroke="#000" stroke-linecap="round" stroke-linejoin="round" stroke-width="20"/><rect x="10" y="790.62" width="615.91" height="107.78" rx="7" ry="7" fill="none" stroke="#000" stroke-linecap="round" stroke-linejoin="round" stroke-width="20"/></svg>