<?xml version="1.0" encoding="UTF-8"?><svg id="Layer_1" xmlns="http://www.w3.org/2000/svg" viewBox="0 0 644.81 1020"><path d="M572.25,10c42.81,75.14,74.9,162.32,57.95,247.12-16.95,84.8-98.15,160.78-183.31,145.73-18.02-3.19-36.14-10.74-47.42-25.16-28.97-37.03,10.15-97.08,57.12-99.15,46.97-2.07,87.42,36.03,106.93,78.8,30.13,66.07,21.8,148.11-21,206.78-42.8,58.67-118.37,91.65-190.49,83.13-39.28-4.64-85.21-40.52-66.18-75.2,4.31-7.86,11.46-13.83,19.17-18.4,30.94-18.33,73.48-14.38,100.51,9.34,27.03,23.72,36.49,65.38,22.34,98.44-9.32,21.78-27.1,38.66-44.83,54.39-110.04,97.61-236.77,176.35-373.03,231.76,41.63-57.96,80.48-117.91,116.39-179.58,33.92,76.79,56.36,158.64,66.34,242-64.81-12.7-123.03-34.16-182.73-62.42" fill="none" stroke="#000" stroke-linecap="round" stroke-linejoin="round" stroke-width="20"/></svg>