<?xml version="1.0" encoding="UTF-8"?><svg id="Layer_1" xmlns="http://www.w3.org/2000/svg" viewBox="0 0 1018.16 935.35"><path d="M978.7,703.26c-156.67,0-156.67-.91-313.33-.91q-156.67,0-313.33-.38c-156.67,0-156.67,2.52-313.33,2.52-16.5,0-31.2-14.27-31.2-30.77,0-158.75.93-158.75.93-317.5s1.87-158.75,1.87-317.5c0-16.5,11.9-30.4,28.4-30.4,156.67,0,156.67-.51,313.33-.51s156.67,1.93,313.33,1.93,156.67-2.24,313.33-2.24c16.5,0,31.96,14.72,31.96,31.22,0,158.75-1.13,158.75-1.13,317.5s.1,158.75.1,317.5c0,16.5-14.42,29.55-30.92,29.55Z" fill="none" stroke="#fff" stroke-linecap="round" stroke-linejoin="round" stroke-width="15"/><polygon points="934.7 581.95 651.58 583.77 368.25 581.1 84.87 582.25 84.25 332.2 84.78 82.04 368.25 83.25 651.58 81.89 935.78 81.21 934.73 332.2 934.7 581.95" fill="none" stroke="#fff" stroke-linecap="square" stroke-width="15"/><polyline points="378.42 707.68 379.28 773.97 278.54 927.85 738.85 927.84 639.36 773.4 639.42 703.72" fill="none" stroke="#fff" stroke-linecap="round" stroke-linejoin="round" stroke-width="15"/></svg>