<?xml version="1.0" encoding="UTF-8"?><svg id="Layer_1" xmlns="http://www.w3.org/2000/svg" viewBox="0 0 1010 928.77"><rect x="5" y="5" width="1000" height="695" rx="30" ry="30" fill="none" stroke="#fff" stroke-linecap="round" stroke-linejoin="round" stroke-width="10"/><rect x="81.22" y="78.48" width="850" height="500" fill="#6c6" stroke="#fff" stroke-linecap="square" stroke-width="10"/><rect x="470" y="38.55" width="70" height="10" rx="5" ry="5" fill="none" stroke="#fff" stroke-linecap="square" stroke-width="10"/><polyline points="375 700 375 769.98 275 923.77 735 923.77 635 769.98 635 700" fill="none" stroke="#fff" stroke-linecap="round" stroke-linejoin="round" stroke-width="10"/><path d="M173.53,395.21c-8.91,0-17.13-2.34-24.65-7.02-7.52-4.68-13.53-11.77-18.02-21.28-4.49-9.51-6.74-21.49-6.74-35.94,0-15.2,2.36-27.53,7.08-37,4.72-9.47,10.82-16.41,18.31-20.83,7.49-4.42,15.35-6.63,23.58-6.63,6.21,0,11.66,1.07,16.34,3.2,4.68,2.13,8.61,5,11.79,8.59,3.18,3.59,5.56,7.52,7.13,11.79h.67v-63.79h45.15v167.33h-44.7v-20.66h-1.12c-1.72,4.27-4.19,8.07-7.41,11.4-3.22,3.33-7.11,5.97-11.68,7.92-4.57,1.95-9.81,2.92-15.72,2.92ZM190.15,360.62c4.12,0,7.67-1.22,10.67-3.65,2.99-2.43,5.3-5.86,6.91-10.28,1.61-4.42,2.41-9.66,2.41-15.72s-.81-11.55-2.41-16c-1.61-4.45-3.91-7.88-6.91-10.28-3-2.4-6.55-3.59-10.67-3.59s-7.64,1.2-10.56,3.59c-2.92,2.4-5.15,5.82-6.68,10.28-1.54,4.46-2.3,9.79-2.3,16s.77,11.44,2.3,15.89c1.53,4.46,3.76,7.86,6.68,10.22s6.44,3.54,10.56,3.54Z" fill="#fff"/><path d="M337.27,395.88c-13.4,0-24.95-2.56-34.65-7.69-9.7-5.13-17.13-12.52-22.29-22.18s-7.75-21.26-7.75-34.81,2.6-24.28,7.8-33.97c5.2-9.69,12.56-17.24,22.07-22.63,9.51-5.39,20.74-8.09,33.69-8.09,9.51,0,18.1,1.48,25.77,4.44,7.67,2.96,14.24,7.23,19.71,12.8,5.46,5.58,9.66,12.34,12.58,20.27,2.92,7.94,4.38,16.92,4.38,26.95v10.33h-112.08v-24.71h90.97l-21.11,5.17c0-5.09-.75-9.38-2.25-12.86-1.5-3.48-3.71-6.14-6.63-7.97-2.92-1.83-6.55-2.75-10.89-2.75s-7.97.92-10.89,2.75c-2.92,1.84-5.13,4.49-6.63,7.97-1.5,3.48-2.25,7.77-2.25,12.86v17.97c0,5.54.88,10.13,2.64,13.76,1.76,3.63,4.25,6.33,7.47,8.09,3.22,1.76,6.96,2.64,11.23,2.64,3.07,0,5.86-.43,8.37-1.29,2.51-.86,4.66-2.1,6.46-3.71,1.8-1.61,3.14-3.57,4.04-5.9l39.76,5.84c-2.1,7.49-5.8,13.98-11.12,19.48-5.32,5.5-12.04,9.75-20.16,12.75-8.12,2.99-17.54,4.49-28.24,4.49Z" fill="#fff"/><path d="M447.33,393.63l-44.7-125.56h47.39l16.28,57.28c2.4,8.46,4.51,17.13,6.34,26,1.83,8.87,3.69,18.47,5.56,28.81h-7.08c1.8-10.33,3.59-19.91,5.39-28.75,1.8-8.83,3.86-17.52,6.18-26.05l15.83-57.28h46.72l-44.92,125.56h-53.01Z" fill="#fff"/><path d="M558.06,393.63v-125.56h45.15v125.56h-45.15ZM580.52,255.27c-6.14,0-11.38-2.02-15.72-6.06-4.34-4.04-6.51-8.91-6.51-14.6s2.17-10.65,6.51-14.66c4.34-4,9.58-6.01,15.72-6.01s11.38,2,15.72,6.01c4.34,4.01,6.51,8.89,6.51,14.66s-2.17,10.56-6.51,14.6c-4.34,4.04-9.58,6.06-15.72,6.06Z" fill="#fff"/><path d="M686.54,395.88c-13.63,0-25.29-2.71-34.98-8.14-9.7-5.43-17.11-12.99-22.24-22.69-5.13-9.69-7.69-20.98-7.69-33.86s2.56-24.16,7.69-33.86c5.13-9.69,12.54-17.26,22.24-22.69,9.69-5.43,21.35-8.14,34.98-8.14,8.68,0,16.55,1.12,23.58,3.37,7.04,2.25,13.16,5.45,18.36,9.6,5.2,4.16,9.34,9.17,12.41,15.05,3.07,5.88,4.98,12.45,5.73,19.71l-41.44,6.18c-.52-3.29-1.29-6.19-2.3-8.7-1.01-2.51-2.26-4.62-3.76-6.35-1.5-1.72-3.24-3.01-5.22-3.87-1.98-.86-4.21-1.29-6.68-1.29-3.97,0-7.41,1.12-10.33,3.37s-5.19,5.65-6.79,10.22c-1.61,4.57-2.41,10.3-2.41,17.18s.8,12.54,2.41,17.18c1.61,4.64,3.88,8.14,6.79,10.5s6.36,3.54,10.33,3.54c2.47,0,4.7-.45,6.68-1.35,1.98-.9,3.74-2.23,5.28-3.99,1.53-1.76,2.81-3.95,3.82-6.57,1.01-2.62,1.74-5.62,2.19-8.98l41.44,6.06c-.75,7.49-2.66,14.21-5.73,20.16-3.07,5.95-7.19,11.04-12.35,15.27-5.17,4.23-11.29,7.47-18.36,9.71-7.08,2.25-14.96,3.37-23.64,3.37Z" fill="#fff"/><path d="M825.01,395.88c-13.4,0-24.95-2.56-34.65-7.69-9.7-5.13-17.13-12.52-22.29-22.18s-7.75-21.26-7.75-34.81,2.6-24.28,7.8-33.97c5.2-9.69,12.56-17.24,22.07-22.63,9.51-5.39,20.74-8.09,33.69-8.09,9.51,0,18.1,1.48,25.77,4.44,7.67,2.96,14.24,7.23,19.71,12.8,5.46,5.58,9.66,12.34,12.58,20.27,2.92,7.94,4.38,16.92,4.38,26.95v10.33h-112.08v-24.71h90.97l-21.11,5.17c0-5.09-.75-9.38-2.25-12.86-1.5-3.48-3.71-6.14-6.63-7.97-2.92-1.83-6.55-2.75-10.89-2.75s-7.97.92-10.89,2.75c-2.92,1.84-5.13,4.49-6.63,7.97-1.5,3.48-2.25,7.77-2.25,12.86v17.97c0,5.54.88,10.13,2.64,13.76,1.76,3.63,4.25,6.33,7.47,8.09,3.22,1.76,6.96,2.64,11.23,2.64,3.07,0,5.86-.43,8.37-1.29,2.51-.86,4.66-2.1,6.46-3.71,1.8-1.61,3.14-3.57,4.04-5.9l39.76,5.84c-2.1,7.49-5.8,13.98-11.12,19.48-5.32,5.5-12.04,9.75-20.16,12.75-8.12,2.99-17.54,4.49-28.24,4.49Z" fill="#fff"/></svg>