<?xml version="1.0" encoding="UTF-8"?><svg id="Layer_1" xmlns="http://www.w3.org/2000/svg" viewBox="0 0 1017.5 935.49"><path d="M978.6,702.59q-156.67,0-313.33-.25c-156.67,0-156.67,1.93-313.33,1.93s-156.67.5-313.33.5c-16.5,0-28.27-14.43-28.27-30.93,0-158.75-2.84-158.75-2.84-317.5s1.9-158.75,1.9-317.5c0-16.5,12.7-30.41,29.2-30.41,156.67,0,156.67,2.3,313.33,2.3s156.67-3.24,313.33-3.24,156.67,2.84,313.33,2.84c16.5,0,30.49,12.01,30.49,28.51,0,158.75-2.47,158.75-2.47,317.5s3.38,158.75,3.38,317.5c0,16.5-14.9,28.75-31.4,28.75Z" fill="none" stroke="#fff" stroke-linecap="round" stroke-linejoin="round" stroke-width="15"/><polygon points="934.76 582.26 651.49 583.03 368.15 581.53 84.81 582.34 83.6 332.33 85.31 82.89 368.15 83.02 651.49 80.79 934.05 83.2 933.87 332.33 934.76 582.26" fill="#6c6"/><polygon points="934.76 582.26 651.49 583.03 368.15 581.53 84.81 582.34 83.6 332.33 85.31 82.89 368.15 83.02 651.49 80.79 934.05 83.2 933.87 332.33 934.76 582.26" fill="none" stroke="#fff" stroke-linecap="square" stroke-width="15"/><polyline points="378.9 707.81 378.48 773.78 278.72 927.33 738.76 927.99 638.55 773.85 637.9 703.85" fill="none" stroke="#fff" stroke-linecap="round" stroke-linejoin="round" stroke-width="15"/><path d="M190.13,279.75c2.67,0,4.88.87,6.62,2.62,1.74,1.75,2.62,4,2.62,6.78v95.17c0,2.67-.87,4.9-2.62,6.7-1.75,1.8-3.95,2.69-6.62,2.69s-4.88-.9-6.62-2.69c-1.75-1.8-2.62-4.03-2.62-6.7v-7.55l3.39,1.39c0,1.34-.72,2.95-2.16,4.85-1.44,1.9-3.39,3.77-5.85,5.62-2.46,1.85-5.37,3.41-8.7,4.7-3.34,1.28-6.96,1.92-10.86,1.92-7.08,0-13.5-1.82-19.25-5.47-5.75-3.64-10.29-8.67-13.63-15.09-3.34-6.42-5-13.78-5-22.1s1.67-15.84,5-22.25c3.33-6.42,7.83-11.45,13.48-15.09,5.65-3.64,11.91-5.47,18.79-5.47,4.41,0,8.47.67,12.17,2,3.7,1.34,6.9,3.03,9.62,5.08,2.72,2.06,4.83,4.13,6.31,6.24,1.49,2.11,2.23,3.88,2.23,5.31l-5.54,2v-41.27c0-2.67.87-4.9,2.62-6.7,1.75-1.79,3.95-2.69,6.62-2.69ZM159.03,378.31c4.52,0,8.47-1.13,11.86-3.39,3.39-2.26,6.03-5.34,7.93-9.24,1.9-3.9,2.85-8.26,2.85-13.09s-.95-9.34-2.85-13.24c-1.9-3.9-4.54-6.98-7.93-9.24-3.39-2.26-7.34-3.39-11.86-3.39s-8.32,1.13-11.7,3.39c-3.39,2.26-6.03,5.34-7.93,9.24-1.9,3.9-2.85,8.32-2.85,13.24s.95,9.19,2.85,13.09c1.9,3.9,4.54,6.98,7.93,9.24,3.39,2.26,7.29,3.39,11.7,3.39Z" fill="#fff"/><path d="M227.4,301.31c-3.49,0-5.96-.56-7.39-1.69-1.44-1.13-2.16-3.13-2.16-6.01v-2.93c0-2.98.79-5,2.39-6.08,1.59-1.08,4.03-1.62,7.31-1.62,3.59,0,6.11.57,7.55,1.69,1.44,1.13,2.16,3.13,2.16,6.01v2.93c0,2.98-.77,5-2.31,6.08-1.54,1.08-4.06,1.62-7.55,1.62ZM236.8,384.32c0,2.67-.87,4.9-2.62,6.7-1.75,1.8-3.95,2.69-6.62,2.69s-4.88-.9-6.62-2.69c-1.75-1.8-2.62-4.03-2.62-6.7v-63.6c0-2.67.87-4.9,2.62-6.7,1.75-1.8,3.95-2.7,6.62-2.7s4.88.9,6.62,2.7c1.74,1.8,2.62,4.03,2.62,6.7v63.6Z" fill="#fff"/><path d="M250.96,380.93c-1.03-1.44-1.49-3.28-1.39-5.54.1-2.26,1.44-4.21,4-5.85,1.64-1.02,3.39-1.46,5.24-1.31,1.85.15,3.64,1.1,5.39,2.85,2.98,2.98,6.11,5.29,9.39,6.93,3.28,1.64,7.39,2.46,12.32,2.46,1.54-.1,3.23-.33,5.08-.69,1.85-.36,3.46-1.18,4.85-2.46,1.39-1.28,2.08-3.26,2.08-5.93,0-2.26-.77-4.05-2.31-5.39-1.54-1.33-3.57-2.46-6.08-3.39-2.52-.92-5.31-1.79-8.39-2.62-3.18-.92-6.44-1.95-9.78-3.08-3.34-1.13-6.39-2.59-9.16-4.39-2.77-1.8-5.03-4.18-6.78-7.16-1.75-2.98-2.62-6.72-2.62-11.24,0-5.13,1.44-9.5,4.31-13.09,2.87-3.59,6.59-6.36,11.16-8.32,4.57-1.95,9.37-2.93,14.4-2.93,3.18,0,6.52.39,10.01,1.16,3.49.77,6.83,2,10.01,3.7,3.18,1.69,5.85,3.93,8.01,6.7,1.13,1.54,1.79,3.39,2,5.54.2,2.16-.77,4.11-2.93,5.85-1.54,1.23-3.34,1.77-5.39,1.62-2.05-.15-3.75-.85-5.08-2.08-1.75-2.26-4.08-4.05-7.01-5.39-2.93-1.33-6.29-2-10.09-2-1.54,0-3.21.18-5,.54-1.8.36-3.36,1.13-4.7,2.31-1.33,1.18-2,3.06-2,5.62,0,2.36.77,4.24,2.31,5.62,1.54,1.39,3.62,2.52,6.24,3.39,2.62.87,5.41,1.72,8.39,2.54,3.08.82,6.21,1.8,9.39,2.93,3.18,1.13,6.11,2.62,8.78,4.47,2.67,1.85,4.82,4.23,6.47,7.16,1.64,2.93,2.46,6.65,2.46,11.17,0,5.24-1.54,9.7-4.62,13.4-3.08,3.7-6.93,6.49-11.55,8.39s-9.34,2.85-14.17,2.85c-6.06,0-12.12-1.05-18.17-3.16-6.06-2.1-11.09-5.83-15.09-11.17Z" fill="#fff"/><path d="M372.62,309.78c7.19,0,13.63,1.82,19.33,5.47,5.7,3.65,10.21,8.65,13.55,15.01,3.33,6.37,5,13.76,5,22.18s-1.67,15.84-5,22.25c-3.34,6.42-7.8,11.45-13.4,15.09-5.6,3.65-11.88,5.47-18.86,5.47-4.11,0-7.96-.67-11.55-2-3.6-1.33-6.75-3.03-9.47-5.08-2.72-2.05-4.83-4.13-6.31-6.24-1.49-2.1-2.23-3.87-2.23-5.31l4.77-2v40.5c0,2.67-.87,4.9-2.62,6.7-1.75,1.79-3.95,2.69-6.62,2.69s-4.88-.87-6.62-2.62c-1.75-1.75-2.62-4-2.62-6.78v-94.4c0-2.67.87-4.9,2.62-6.7,1.74-1.8,3.95-2.7,6.62-2.7s4.88.9,6.62,2.7c1.74,1.8,2.62,4.03,2.62,6.7v7.55l-2.62-1.39c0-1.33.72-2.95,2.16-4.85,1.44-1.9,3.39-3.8,5.85-5.7,2.46-1.9,5.31-3.47,8.55-4.7,3.23-1.23,6.65-1.85,10.24-1.85ZM370.31,326.72c-4.52,0-8.47,1.13-11.86,3.39-3.39,2.26-6.03,5.31-7.93,9.16-1.9,3.85-2.85,8.24-2.85,13.17s.95,9.22,2.85,13.17c1.9,3.95,4.54,7.06,7.93,9.32,3.39,2.26,7.34,3.39,11.86,3.39s8.44-1.13,11.78-3.39c3.33-2.26,5.95-5.36,7.85-9.32,1.9-3.95,2.85-8.34,2.85-13.17s-.95-9.32-2.85-13.17c-1.9-3.85-4.52-6.9-7.85-9.16-3.34-2.26-7.26-3.39-11.78-3.39Z" fill="#fff"/><path d="M506.6,352.59c0,8.42-1.87,15.84-5.62,22.25-3.75,6.42-8.78,11.42-15.09,15.02-6.31,3.6-13.37,5.39-21.17,5.39s-14.86-1.79-21.17-5.39c-6.31-3.59-11.35-8.6-15.09-15.02-3.75-6.42-5.62-13.83-5.62-22.25s1.87-15.84,5.62-22.25c3.75-6.42,8.78-11.45,15.09-15.09,6.31-3.64,13.37-5.47,21.17-5.47s14.86,1.82,21.17,5.47c6.31,3.65,11.34,8.68,15.09,15.09,3.75,6.42,5.62,13.84,5.62,22.25ZM488.12,352.59c0-5.24-1.05-9.78-3.16-13.63-2.11-3.85-4.93-6.85-8.47-9.01-3.54-2.16-7.47-3.23-11.78-3.23s-8.24,1.08-11.78,3.23c-3.54,2.16-6.37,5.16-8.47,9.01-2.11,3.85-3.16,8.39-3.16,13.63s1.05,9.62,3.16,13.48c2.1,3.85,4.93,6.85,8.47,9.01,3.54,2.16,7.47,3.23,11.78,3.23s8.24-1.08,11.78-3.23c3.54-2.16,6.36-5.16,8.47-9.01,2.1-3.85,3.16-8.34,3.16-13.48Z" fill="#fff"/><path d="M517.99,380.93c-1.03-1.44-1.49-3.28-1.39-5.54.1-2.26,1.44-4.21,4-5.85,1.64-1.02,3.39-1.46,5.24-1.31,1.85.15,3.64,1.1,5.39,2.85,2.98,2.98,6.11,5.29,9.39,6.93,3.28,1.64,7.39,2.46,12.32,2.46,1.54-.1,3.23-.33,5.08-.69,1.85-.36,3.46-1.18,4.85-2.46,1.39-1.28,2.08-3.26,2.08-5.93,0-2.26-.77-4.05-2.31-5.39-1.54-1.33-3.57-2.46-6.08-3.39-2.52-.92-5.31-1.79-8.39-2.62-3.18-.92-6.44-1.95-9.78-3.08-3.34-1.13-6.39-2.59-9.16-4.39-2.77-1.8-5.03-4.18-6.78-7.16-1.75-2.98-2.62-6.72-2.62-11.24,0-5.13,1.44-9.5,4.31-13.09,2.87-3.59,6.59-6.36,11.16-8.32,4.57-1.95,9.37-2.93,14.4-2.93,3.18,0,6.52.39,10.01,1.16,3.49.77,6.83,2,10.01,3.7,3.18,1.69,5.85,3.93,8.01,6.7,1.13,1.54,1.79,3.39,2,5.54.2,2.16-.77,4.11-2.93,5.85-1.54,1.23-3.34,1.77-5.39,1.62-2.05-.15-3.75-.85-5.08-2.08-1.75-2.26-4.08-4.05-7.01-5.39-2.93-1.33-6.29-2-10.09-2-1.54,0-3.21.18-5,.54-1.8.36-3.36,1.13-4.7,2.31-1.33,1.18-2,3.06-2,5.62,0,2.36.77,4.24,2.31,5.62,1.54,1.39,3.62,2.52,6.24,3.39,2.62.87,5.41,1.72,8.39,2.54,3.08.82,6.21,1.8,9.39,2.93,3.18,1.13,6.11,2.62,8.78,4.47,2.67,1.85,4.82,4.23,6.47,7.16,1.64,2.93,2.46,6.65,2.46,11.17,0,5.24-1.54,9.7-4.62,13.4-3.08,3.7-6.93,6.49-11.55,8.39s-9.34,2.85-14.17,2.85c-6.06,0-12.12-1.05-18.17-3.16-6.06-2.1-11.09-5.83-15.09-11.17Z" fill="#fff"/><path d="M605,301.31c-3.49,0-5.96-.56-7.39-1.69-1.44-1.13-2.16-3.13-2.16-6.01v-2.93c0-2.98.79-5,2.39-6.08,1.59-1.08,4.03-1.62,7.31-1.62,3.59,0,6.11.57,7.55,1.69,1.44,1.13,2.16,3.13,2.16,6.01v2.93c0,2.98-.77,5-2.31,6.08-1.54,1.08-4.06,1.62-7.55,1.62ZM614.4,384.32c0,2.67-.87,4.9-2.62,6.7-1.75,1.8-3.95,2.69-6.62,2.69s-4.88-.9-6.62-2.69c-1.75-1.8-2.62-4.03-2.62-6.7v-63.6c0-2.67.87-4.9,2.62-6.7,1.75-1.8,3.95-2.7,6.62-2.7s4.88.9,6.62,2.7c1.74,1.8,2.62,4.03,2.62,6.7v63.6Z" fill="#fff"/><path d="M634.26,312.86h36.5c2.46,0,4.52.82,6.16,2.46,1.64,1.64,2.46,3.7,2.46,6.16s-.82,4.34-2.46,5.93c-1.64,1.59-3.7,2.39-6.16,2.39h-36.5c-2.46,0-4.52-.82-6.16-2.46-1.64-1.64-2.46-3.7-2.46-6.16s.82-4.34,2.46-5.93c1.64-1.59,3.7-2.39,6.16-2.39ZM650.74,293.61c2.67,0,4.85.9,6.54,2.7,1.69,1.8,2.54,4.03,2.54,6.7v68.53c0,1.44.28,2.62.85,3.54.56.92,1.33,1.59,2.31,2,.97.41,2.03.62,3.16.62,1.23,0,2.36-.23,3.39-.69,1.02-.46,2.21-.69,3.54-.69,1.44,0,2.75.67,3.93,2,1.18,1.34,1.77,3.18,1.77,5.54,0,2.88-1.57,5.24-4.7,7.08-3.13,1.85-6.5,2.77-10.09,2.77-2.16,0-4.54-.18-7.16-.54-2.62-.36-5.08-1.23-7.39-2.62-2.31-1.39-4.23-3.52-5.77-6.39-1.54-2.87-2.31-6.83-2.31-11.86v-69.3c0-2.67.9-4.9,2.7-6.7,1.79-1.8,4.03-2.7,6.7-2.7Z" fill="#fff"/><path d="M704.33,301.31c-3.49,0-5.96-.56-7.39-1.69-1.44-1.13-2.16-3.13-2.16-6.01v-2.93c0-2.98.79-5,2.39-6.08,1.59-1.08,4.03-1.62,7.31-1.62,3.59,0,6.11.57,7.55,1.69,1.44,1.13,2.16,3.13,2.16,6.01v2.93c0,2.98-.77,5-2.31,6.08-1.54,1.08-4.06,1.62-7.55,1.62ZM713.73,384.32c0,2.67-.87,4.9-2.62,6.7-1.75,1.8-3.95,2.69-6.62,2.69s-4.88-.9-6.62-2.69c-1.75-1.8-2.62-4.03-2.62-6.7v-63.6c0-2.67.87-4.9,2.62-6.7,1.75-1.8,3.95-2.7,6.62-2.7s4.88.9,6.62,2.7c1.74,1.8,2.62,4.03,2.62,6.7v63.6Z" fill="#fff"/><path d="M736.36,311.32c1.95,0,3.75.49,5.39,1.46,1.64.98,2.87,2.44,3.7,4.39l22.64,51.74-3.39,1.54,23.1-53.13c1.75-4.11,4.47-6.06,8.16-5.85,2.57,0,4.64.8,6.24,2.39,1.59,1.59,2.39,3.57,2.39,5.93,0,.72-.13,1.49-.38,2.31-.26.82-.54,1.59-.85,2.31l-28.8,63.45c-1.64,3.7-4.26,5.65-7.85,5.85-1.95.31-3.83-.05-5.62-1.08-1.8-1.02-3.16-2.62-4.08-4.77l-28.64-63.45c-.21-.51-.44-1.18-.69-2-.26-.82-.38-1.8-.38-2.93,0-1.85.82-3.67,2.46-5.47,1.64-1.8,3.85-2.7,6.62-2.7Z" fill="#fff"/><path d="M898.37,352.59c0,8.42-1.87,15.84-5.62,22.25-3.75,6.42-8.78,11.42-15.09,15.02-6.31,3.6-13.37,5.39-21.17,5.39s-14.86-1.79-21.17-5.39c-6.31-3.59-11.35-8.6-15.09-15.02-3.75-6.42-5.62-13.83-5.62-22.25s1.87-15.84,5.62-22.25c3.75-6.42,8.78-11.45,15.09-15.09,6.31-3.64,13.37-5.47,21.17-5.47s14.86,1.82,21.17,5.47c6.31,3.65,11.34,8.68,15.09,15.09,3.75,6.42,5.62,13.84,5.62,22.25ZM879.89,352.59c0-5.24-1.05-9.78-3.16-13.63-2.11-3.85-4.93-6.85-8.47-9.01-3.54-2.16-7.47-3.23-11.78-3.23s-8.24,1.08-11.78,3.23c-3.54,2.16-6.37,5.16-8.47,9.01-2.11,3.85-3.16,8.39-3.16,13.63s1.05,9.62,3.16,13.48c2.1,3.85,4.93,6.85,8.47,9.01,3.54,2.16,7.47,3.23,11.78,3.23s8.24-1.08,11.78-3.23c3.54-2.16,6.36-5.16,8.47-9.01,2.1-3.85,3.16-8.34,3.16-13.48Z" fill="#fff"/></svg>