<?xml version="1.0" encoding="UTF-8"?><svg id="Layer_1" xmlns="http://www.w3.org/2000/svg" viewBox="0 0 1010 928.77"><rect x="5" y="5" width="1000" height="695" rx="30" ry="30" fill="none" stroke="#000" stroke-linecap="round" stroke-linejoin="round" stroke-width="10"/><rect x="81.22" y="78.48" width="850" height="500" fill="#22c55e" stroke="#000" stroke-linecap="square" stroke-width="10"/><rect x="470" y="38.55" width="70" height="10" rx="5" ry="5" fill="none" stroke="#000" stroke-linecap="square" stroke-width="10"/><polyline points="375 700 375 769.98 275 923.77 735 923.77 635 769.98 635 700" fill="none" stroke="#000" stroke-linecap="round" stroke-linejoin="round" stroke-width="10"/><path d="M151.11,390.81c-5.35,0-10.28-1.4-14.79-4.21-4.51-2.81-8.12-7.06-10.81-12.77-2.7-5.7-4.04-12.89-4.04-21.56,0-9.12,1.42-16.52,4.25-22.2,2.83-5.68,6.49-9.85,10.98-12.5,4.49-2.65,9.21-3.98,14.15-3.98,3.73,0,7,.64,9.8,1.92,2.81,1.28,5.17,3,7.07,5.15s3.34,4.51,4.28,7.08h.4v-38.27h27.09v100.4h-26.82v-12.4h-.67c-1.03,2.56-2.52,4.84-4.45,6.84-1.93,2-4.27,3.58-7.01,4.75-2.74,1.17-5.89,1.75-9.43,1.75ZM161.08,370.05c2.47,0,4.6-.73,6.4-2.19,1.8-1.46,3.18-3.51,4.14-6.17.97-2.65,1.45-5.79,1.45-9.43s-.48-6.93-1.45-9.6c-.97-2.67-2.35-4.73-4.14-6.17-1.8-1.44-3.93-2.16-6.4-2.16s-4.58.72-6.33,2.16c-1.75,1.44-3.09,3.49-4.01,6.17-.92,2.67-1.38,5.87-1.38,9.6s.46,6.86,1.38,9.53c.92,2.67,2.26,4.72,4.01,6.13s3.86,2.12,6.33,2.12Z" fill="#fff"/><path d="M213.23,389.86v-75.33h27.09v75.33h-27.09ZM226.71,306.85c-3.68,0-6.83-1.21-9.43-3.64-2.61-2.43-3.91-5.35-3.91-8.76s1.3-6.39,3.91-8.79c2.6-2.4,5.75-3.6,9.43-3.6s6.83,1.2,9.43,3.6c2.6,2.4,3.91,5.33,3.91,8.79s-1.3,6.33-3.91,8.76c-2.61,2.43-5.75,3.64-9.43,3.64Z" fill="#fff"/><path d="M287.69,391.21c-6.83,0-12.86-.97-18.09-2.9s-9.48-4.68-12.73-8.25c-3.26-3.57-5.31-7.83-6.17-12.77l25.07-3.64c.9,2.96,2.36,5.25,4.38,6.84,2.02,1.6,4.94,2.39,8.76,2.39,2.65,0,4.72-.4,6.2-1.21s2.22-1.98,2.22-3.5c0-1.44-.7-2.58-2.09-3.44-1.39-.85-3.57-1.55-6.54-2.09l-13.34-2.43c-7.64-1.39-13.37-3.94-17.18-7.65-3.82-3.71-5.73-8.52-5.73-14.45,0-5.26,1.4-9.7,4.21-13.34s6.81-6.41,11.99-8.32c5.19-1.91,11.38-2.86,18.56-2.86,6.65,0,12.47.87,17.45,2.59,4.99,1.73,9,4.21,12.03,7.45,3.03,3.23,4.93,7.14,5.69,11.72l-23.85,3.44c-.58-2.47-1.86-4.28-3.84-5.42-1.98-1.15-4.29-1.72-6.94-1.72-2.34,0-4.31.42-5.93,1.25-1.62.83-2.43,2.03-2.43,3.6,0,1.12.48,2.18,1.45,3.17.96.99,2.86,1.73,5.69,2.22l15.36,2.7c7.68,1.35,13.42,3.68,17.22,7.01,3.79,3.32,5.69,7.77,5.69,13.34s-1.61,10.05-4.82,13.98c-3.21,3.93-7.6,6.96-13.17,9.1-5.57,2.13-11.95,3.2-19.14,3.2Z" fill="#fff"/><path d="M335.2,418.03v-103.5h26.82v13.21h.67c.99-2.56,2.43-4.92,4.31-7.08s4.23-3.87,7.04-5.15,6.08-1.92,9.8-1.92c4.99,0,9.71,1.33,14.18,3.98,4.47,2.65,8.12,6.82,10.95,12.5,2.83,5.68,4.25,13.08,4.25,22.2s-1.35,15.86-4.04,21.56c-2.7,5.71-6.29,9.96-10.78,12.77-4.49,2.81-9.43,4.21-14.82,4.21-3.5,0-6.64-.58-9.4-1.75-2.76-1.17-5.11-2.75-7.04-4.75-1.93-2-3.41-4.28-4.45-6.84h-.4v40.56h-27.09ZM373.6,370.05c2.52,0,4.64-.71,6.37-2.12s3.05-3.46,3.98-6.13c.92-2.67,1.38-5.85,1.38-9.53s-.46-6.93-1.38-9.6c-.92-2.67-2.25-4.73-3.98-6.17-1.73-1.44-3.85-2.16-6.37-2.16s-4.61.72-6.4,2.16c-1.8,1.44-3.18,3.49-4.14,6.17-.97,2.67-1.45,5.87-1.45,9.6s.48,6.78,1.45,9.43c.96,2.65,2.35,4.71,4.14,6.17,1.8,1.46,3.93,2.19,6.4,2.19Z" fill="#fff"/><path d="M460.59,391.21c-8.18,0-15.18-1.63-21.02-4.89-5.84-3.26-10.3-7.79-13.38-13.61-3.08-5.82-4.62-12.59-4.62-20.32s1.54-14.5,4.62-20.32c3.08-5.82,7.54-10.35,13.38-13.61,5.84-3.26,12.85-4.89,21.02-4.89s15.16,1.63,20.96,4.89c5.79,3.26,10.23,7.79,13.31,13.61,3.08,5.82,4.62,12.59,4.62,20.32s-1.54,14.5-4.62,20.32c-3.08,5.82-7.51,10.35-13.31,13.61-5.79,3.26-12.78,4.89-20.96,4.89ZM460.59,371c2.33,0,4.35-.74,6.03-2.22,1.69-1.48,2.98-3.63,3.88-6.44.9-2.81,1.35-6.17,1.35-10.07s-.45-7.3-1.35-10.04c-.9-2.74-2.19-4.83-3.88-6.27-1.68-1.44-3.7-2.16-6.03-2.16s-4.42.72-6.13,2.16c-1.71,1.44-3.01,3.53-3.91,6.27-.9,2.74-1.35,6.09-1.35,10.04s.45,7.27,1.35,10.07c.9,2.81,2.2,4.95,3.91,6.44,1.71,1.48,3.75,2.22,6.13,2.22Z" fill="#fff"/><path d="M544.15,391.21c-6.83,0-12.86-.97-18.09-2.9s-9.48-4.68-12.73-8.25c-3.26-3.57-5.31-7.83-6.17-12.77l25.07-3.64c.9,2.96,2.36,5.25,4.38,6.84,2.02,1.6,4.94,2.39,8.76,2.39,2.65,0,4.72-.4,6.2-1.21s2.22-1.98,2.22-3.5c0-1.44-.7-2.58-2.09-3.44-1.39-.85-3.57-1.55-6.54-2.09l-13.34-2.43c-7.64-1.39-13.37-3.94-17.18-7.65-3.82-3.71-5.73-8.52-5.73-14.45,0-5.26,1.4-9.7,4.21-13.34s6.81-6.41,11.99-8.32c5.19-1.91,11.38-2.86,18.56-2.86,6.65,0,12.47.87,17.45,2.59,4.99,1.73,9,4.21,12.03,7.45,3.03,3.23,4.93,7.14,5.69,11.72l-23.85,3.44c-.58-2.47-1.86-4.28-3.84-5.42-1.98-1.15-4.29-1.72-6.94-1.72-2.34,0-4.31.42-5.93,1.25-1.62.83-2.43,2.03-2.43,3.6,0,1.12.48,2.18,1.45,3.17.96.99,2.86,1.73,5.69,2.22l15.36,2.7c7.68,1.35,13.42,3.68,17.22,7.01,3.79,3.32,5.69,7.77,5.69,13.34s-1.61,10.05-4.82,13.98c-3.21,3.93-7.6,6.96-13.17,9.1-5.57,2.13-11.95,3.2-19.14,3.2Z" fill="#fff"/><path d="M591.65,389.86v-75.33h27.09v75.33h-27.09ZM605.13,306.85c-3.68,0-6.83-1.21-9.43-3.64-2.61-2.43-3.91-5.35-3.91-8.76s1.3-6.39,3.91-8.79c2.6-2.4,5.75-3.6,9.43-3.6s6.83,1.2,9.43,3.6c2.6,2.4,3.91,5.33,3.91,8.79s-1.3,6.33-3.91,8.76c-2.61,2.43-5.75,3.64-9.43,3.64Z" fill="#fff"/><path d="M676.56,314.53v19.68h-49.59v-19.68h49.59ZM636.53,296.61h27.09v69.07c0,1.57.4,2.75,1.21,3.54.81.79,2.11,1.18,3.91,1.18.81,0,1.99-.1,3.54-.3,1.55-.2,2.57-.39,3.07-.57l3.23,19.34c-3.1.85-6.02,1.43-8.76,1.72-2.74.29-5.32.44-7.75.44-8.45,0-14.81-1.93-19.1-5.79-4.29-3.86-6.44-9.55-6.44-17.05v-71.56Z" fill="#fff"/><path d="M687.61,389.86v-75.33h27.09v75.33h-27.09ZM701.08,306.85c-3.68,0-6.83-1.21-9.43-3.64-2.61-2.43-3.91-5.35-3.91-8.76s1.3-6.39,3.91-8.79c2.6-2.4,5.75-3.6,9.43-3.6s6.83,1.2,9.43,3.6c2.6,2.4,3.91,5.33,3.91,8.79s-1.3,6.33-3.91,8.76c-2.61,2.43-5.75,3.64-9.43,3.64Z" fill="#fff"/><path d="M749.2,389.86l-26.82-75.33h28.44l9.77,34.37c1.44,5.08,2.71,10.28,3.81,15.6,1.1,5.32,2.21,11.08,3.33,17.28h-4.25c1.08-6.2,2.16-11.95,3.23-17.25,1.08-5.3,2.31-10.51,3.71-15.63l9.5-34.37h28.03l-26.95,75.33h-31.8Z" fill="#fff"/><path d="M849.66,391.21c-8.18,0-15.18-1.63-21.02-4.89-5.84-3.26-10.3-7.79-13.38-13.61-3.08-5.82-4.62-12.59-4.62-20.32s1.54-14.5,4.62-20.32c3.08-5.82,7.54-10.35,13.38-13.61,5.84-3.26,12.85-4.89,21.02-4.89s15.16,1.63,20.96,4.89c5.79,3.26,10.23,7.79,13.31,13.61,3.08,5.82,4.62,12.59,4.62,20.32s-1.54,14.5-4.62,20.32c-3.08,5.82-7.51,10.35-13.31,13.61-5.79,3.26-12.78,4.89-20.96,4.89ZM849.66,371c2.33,0,4.35-.74,6.03-2.22,1.69-1.48,2.98-3.63,3.88-6.44.9-2.81,1.35-6.17,1.35-10.07s-.45-7.3-1.35-10.04c-.9-2.74-2.19-4.83-3.88-6.27-1.68-1.44-3.7-2.16-6.03-2.16s-4.42.72-6.13,2.16c-1.71,1.44-3.01,3.53-3.91,6.27-.9,2.74-1.35,6.09-1.35,10.04s.45,7.27,1.35,10.07c.9,2.81,2.2,4.95,3.91,6.44,1.71,1.48,3.75,2.22,6.13,2.22Z" fill="#fff"/></svg>