<?xml version="1.0" encoding="UTF-8"?><svg id="Layer_1" xmlns="http://www.w3.org/2000/svg" viewBox="0 0 1020.8 1020.75"><polyline points="151.84 373.27 10.31 492.39 10.83 751.13 10 1010.75 344.17 1008.81 677.5 1009.49 1010.8 1009.62 1010.4 751.13 1009.05 493.21 880.04 371.58" fill="none" stroke="#000" stroke-linecap="round" stroke-linejoin="round" stroke-width="20"/><polyline points="18.07 495.12 264 640.73 510.84 784.09 757.75 642.46 1003.9 498.83" fill="none" stroke="#000" stroke-linecap="round" stroke-linejoin="round" stroke-width="20"/><polyline points="15.74 1005.02 216.27 868.16 416.92 731.51" fill="none" stroke="#000" stroke-linecap="round" stroke-linejoin="round" stroke-width="20"/><polyline points="1005.98 1004.94 807.7 868.32 609.35 731.81" fill="none" stroke="#000" stroke-linecap="round" stroke-linejoin="round" stroke-width="20"/><polyline points="152.45 574.04 153.1 291.85 153.68 10.28 510.56 10 867.45 10.28 869.26 291.85 867.66 574.04" fill="none" stroke="#000" stroke-linecap="round" stroke-linejoin="round" stroke-width="20"/><path d="M604.02,555.35c-20.71,6.04-50.03,11.66-88.38,13.05-43.49,1.57-75.82-1.19-107.97-18.51-57.67-31.07-75.61-95.51-82.35-124.41-2.87-12.29-11.71-58.17,1.01-116.1,6.26-28.5,22.27-92.94,85.68-140.54,53.03-39.81,109.08-46.66,127.94-46.66,22.37,0,66.14,2.67,108.66,32.6,43.27,30.46,59.79,71.07,64.99,90.32,13.88,51.37,10.58,89.1,6.85,110.93-7,40.96-21.32,58.75-25.31,63.64-6.34,7.76-18.34,21.72-39.48,28.06-6.72,2.01-26.04,8.25-45.14-.29-32.61-14.58-30.94-53.85-30.35-61.92,1.42-19.22,4.84-29.31,13.12-57.79,7.76-26.7,9.6-35.75,20.35-77.43" fill="none" stroke="#000" stroke-linecap="round" stroke-linejoin="round" stroke-width="30"/><path d="M544.78,245.74c-22.54-6.65-44.99,9.53-52.49,14.8-12.96,9.11-20.03,18.81-28,31.3-24.98,39.17-28.36,69.98-29.34,80.81-1.56,17.16-2.01,32.91,6.33,50.06,3.23,6.65,8.62,19.08,22.55,25.56,25.4,11.82,55.8-10.27,63.41-15.55,17.45-12.1,26.23-24.34,34.01-37.99,11.82-20.72,30.63-53.65,22.41-92.86-1.7-8.12-10.03-47.61-38.88-56.13Z" fill="none" stroke="#000" stroke-linecap="round" stroke-linejoin="round" stroke-width="30"/></svg>