<?xml version="1.0" encoding="UTF-8"?><svg id="Layer_1" xmlns="http://www.w3.org/2000/svg" viewBox="0 0 1000 1000"><circle cx="500" cy="500" r="500" fill="#ffe566"/><path d="M200,387.46c.07-103.6,84.07-187.52,187.62-187.46,83.86.05,157.49,55.81,180.3,136.54,9.06,31.67,9.48,65.18,1.2,97.06l197.65,197.78c21.35,21.21,33.31,50.09,33.22,80.18h0c-.04,48.82-39.6,88.39-88.4,88.44-30.09.08-58.95-11.88-80.17-33.21l-16.8-16.81c-9.34-9.4-14.59-22.11-14.62-35.36v-39.67h-25c-27.61,0-50-22.39-50-50.02v-25.01h-39.65c-13.27.04-26-5.24-35.35-14.66l-16.25-16.26c-31.85,8.33-65.36,7.92-97-1.18-73.74-20.94-127.43-84.53-135.72-160.77-.68-6.51-1.02-13.06-1.03-19.61ZM525,387.46c.07-75.97-61.43-137.62-137.37-137.69-75.94-.07-137.56,61.45-137.63,137.42-.06,61.67,40.91,115.84,100.25,132.55,27.09,7.8,55.94,6.93,82.5-2.5,9.05-3.14,19.1-.83,25.87,5.95l26.72,26.71h39.65c27.61,0,50,22.39,50,50.02v25.01h25c27.61,0,50,22.39,50,50.02v39.67l16.8,16.81c11.86,11.92,27.99,18.6,44.8,18.56,21.19-.01,38.37-17.19,38.4-38.39.04-16.83-6.65-32.98-18.57-44.84l-208.25-208.36c-6.78-6.79-9.08-16.85-5.93-25.91,5.1-14.5,7.72-29.77,7.75-45.14v.13ZM350,324.81c-13.81,0-25,11.2-25,25.01s11.19,25.01,25,25.01,25-11.2,25-25.01-11.19-25.01-25-25.01Z"/></svg>