<?xml version="1.0" encoding="UTF-8"?><svg id="Layer_1" xmlns="http://www.w3.org/2000/svg" viewBox="0 0 1010 826.18"><polygon points="347.34 713.01 661.47 712.29 686.01 788.18 323.99 788.18 347.34 713.01" fill="none" stroke="#000" stroke-linecap="round" stroke-linejoin="round" stroke-width="10"/><rect x="115.04" y="5" width="780" height="550" rx="5" ry="5" fill="#f97316" stroke="#000" stroke-linecap="round" stroke-linejoin="round" stroke-width="10"/><rect x="455" y="36.79" width="100" height="10" rx="5" ry="5" fill="#f97316" stroke="#000" stroke-linecap="round" stroke-linejoin="round" stroke-width="10"/><polygon points="183.25 589.74 826.92 588.94 861.83 691.35 148.17 692.36 183.25 589.74" fill="none" stroke="#000" stroke-linecap="round" stroke-linejoin="round" stroke-width="10"/><polygon points="115.04 565.76 5 809.43 1005 807.69 895.04 565.65 115.04 565.76" fill="none" stroke="#000" stroke-linecap="round" stroke-linejoin="round" stroke-width="10"/><polyline points="5 809.43 12.5 821.18 996.25 819.68 1005 807.69" fill="none" stroke="#000" stroke-linecap="round" stroke-linejoin="round" stroke-width="10"/><path d="M300.88,377.22c-9.75,0-18.39-1.62-25.91-4.85s-13.38-8.13-17.57-14.7c-4.19-6.56-6.29-14.9-6.29-25.02,0-8.38,1.41-15.54,4.24-21.46,2.82-5.92,6.79-10.78,11.89-14.56,5.1-3.78,11.05-6.7,17.84-8.75,6.79-2.05,14.15-3.35,22.08-3.9,8.57-.64,15.43-1.41,20.58-2.32,5.15-.91,8.89-2.26,11.21-4.03s3.49-4.12,3.49-7.04v-.55c0-2.64-.71-4.88-2.12-6.7-1.41-1.82-3.4-3.21-5.95-4.17-2.55-.96-5.61-1.44-9.16-1.44s-6.61.5-9.43,1.5c-2.83,1-5.17,2.51-7.04,4.51-1.87,2.01-3.12,4.56-3.76,7.66l-49.49-4.92c1.46-8.57,5.01-16.36,10.66-23.38,5.65-7.02,13.47-12.62,23.45-16.82,9.98-4.19,22.12-6.29,36.44-6.29,10.85,0,20.67,1.28,29.46,3.83,8.79,2.55,16.31,6.11,22.56,10.66,6.24,4.56,11.03,9.87,14.36,15.93,3.33,6.06,4.99,12.6,4.99,19.62v104.73h-51.41v-21.6h-1.09c-3.1,5.74-6.81,10.37-11.14,13.88-4.33,3.51-9.23,6.08-14.7,7.72s-11.53,2.46-18.18,2.46ZM318.65,342.5c4.19,0,8.13-.87,11.83-2.6,3.69-1.73,6.7-4.21,9.02-7.45,2.32-3.23,3.49-7.18,3.49-11.83v-12.58c-1.46.55-3.01,1.09-4.65,1.64s-3.4,1.05-5.26,1.5c-1.87.46-3.78.87-5.74,1.23-1.96.37-4.03.73-6.22,1.09-4.29.64-7.77,1.71-10.46,3.21-2.69,1.5-4.67,3.33-5.95,5.47-1.28,2.14-1.91,4.54-1.91,7.18,0,2.83.68,5.22,2.05,7.18,1.37,1.96,3.23,3.44,5.61,4.44,2.37,1,5.1,1.5,8.2,1.5Z" fill="#fff"/><path d="M480.25,288.9v85.86h-54.96v-152.85h51.54l1.09,39.1h-1.64c3.46-11.57,9.09-21.3,16.88-29.19,7.79-7.88,18.71-11.83,32.74-11.83,10.85,0,20.26,2.46,28.23,7.38,7.97,4.92,14.15,11.71,18.53,20.37,4.38,8.66,6.56,18.55,6.56,29.67v97.34h-54.96v-85.86c0-7.56-1.91-13.51-5.74-17.84-3.83-4.33-9.21-6.49-16.13-6.49-4.47,0-8.36.98-11.69,2.94-3.33,1.96-5.9,4.74-7.72,8.34-1.82,3.6-2.73,7.95-2.73,13.06Z" fill="#fff"/><path d="M601.8,427.81l12.03-39.1,7.11,1.91c6.02,1.55,11.21,1.98,15.59,1.3s7.56-2.17,9.57-4.44c2-2.28,2.46-5.01,1.37-8.2l-1.5-4.38-56.6-152.99h57.7l19.82,69.73c2.92,10.48,5.17,21.03,6.77,31.65,1.59,10.62,3.58,22.31,5.95,35.07h-9.98c2.37-12.76,4.79-24.49,7.25-35.21,2.46-10.71,5.29-21.21,8.48-31.51l21.88-69.73h56.88l-63.03,166.8c-3.1,8.29-7.29,15.79-12.58,22.49-5.29,6.7-12.15,12.01-20.58,15.93-8.43,3.92-19.07,5.88-31.92,5.88-6.29,0-12.49-.46-18.59-1.37-6.11-.91-11.3-2.19-15.59-3.83Z" fill="#fff"/></svg>