<?xml version="1.0" encoding="UTF-8"?><svg id="Layer_1" xmlns="http://www.w3.org/2000/svg" viewBox="0 0 1010 826.18"><polygon points="347.34 713.01 661.47 712.29 686.01 788.18 323.99 788.18 347.34 713.01" fill="none" stroke="#000" stroke-linecap="round" stroke-linejoin="round" stroke-width="10"/><rect x="115.04" y="5" width="780" height="550" rx="5" ry="5" fill="#f97316" stroke="#000" stroke-linecap="round" stroke-linejoin="round" stroke-width="10"/><rect x="455" y="36.79" width="100" height="10" rx="5" ry="5" fill="#f97316" stroke="#000" stroke-linecap="round" stroke-linejoin="round" stroke-width="10"/><polygon points="183.25 589.74 826.92 588.94 861.83 691.35 148.17 692.36 183.25 589.74" fill="none" stroke="#000" stroke-linecap="round" stroke-linejoin="round" stroke-width="10"/><polygon points="115.04 565.76 5 809.43 1005 807.69 895.04 565.65 115.04 565.76" fill="none" stroke="#000" stroke-linecap="round" stroke-linejoin="round" stroke-width="10"/><polyline points="5 809.43 12.5 821.18 996.25 819.68 1005 807.69" fill="none" stroke="#000" stroke-linecap="round" stroke-linejoin="round" stroke-width="10"/><path d="M193.68,345.46c-8.89,0-16.49-1.77-22.81-5.31-6.32-3.54-11.16-8.47-14.5-14.79-3.35-6.32-5.02-13.68-5.02-22.08s1.67-15.76,5.02-22.08c3.34-6.32,8.18-11.25,14.5-14.79,6.32-3.54,13.93-5.31,22.81-5.31,5.66,0,10.79.73,15.38,2.2,4.59,1.46,8.58,3.55,11.97,6.26s6.09,5.98,8.09,9.81c2,3.83,3.25,8.12,3.74,12.85l-27.03,4.03c-.34-2.15-.84-4.04-1.5-5.68-.66-1.64-1.48-3.01-2.45-4.14-.98-1.12-2.11-1.96-3.41-2.53-1.29-.56-2.75-.84-4.36-.84-2.59,0-4.83.73-6.74,2.2s-3.38,3.69-4.43,6.67c-1.05,2.98-1.57,6.71-1.57,11.21s.52,8.18,1.57,11.21c1.05,3.03,2.53,5.31,4.43,6.85s4.15,2.31,6.74,2.31c1.61,0,3.06-.29,4.36-.88s2.44-1.45,3.44-2.6c1-1.15,1.83-2.57,2.49-4.28.66-1.71,1.13-3.66,1.43-5.86l27.03,3.96c-.49,4.88-1.73,9.27-3.74,13.15-2,3.88-4.69,7.2-8.06,9.96-3.37,2.76-7.36,4.87-11.97,6.34-4.62,1.46-9.75,2.2-15.42,2.2Z" fill="#fff"/><path d="M273.3,345.02c-5.76,0-10.79-1.32-15.09-3.96-4.3-2.64-7.62-6.27-9.96-10.91-2.34-4.64-3.52-9.94-3.52-15.89v-52.15h29.44v46c0,4.05,1.03,7.24,3.08,9.56,2.05,2.32,4.93,3.48,8.64,3.48,2.44,0,4.54-.52,6.3-1.57,1.76-1.05,3.12-2.55,4.1-4.5.98-1.95,1.46-4.27,1.46-6.96v-46h29.44v81.88h-27.61l-.59-20.95h.88c-1.86,6.2-4.87,11.41-9.05,15.64-4.17,4.22-10.02,6.34-17.54,6.34Z" fill="#fff"/><path d="M365,345.31c-5.23,0-9.85-.87-13.88-2.6-4.03-1.73-7.17-4.36-9.41-7.87-2.25-3.52-3.37-7.98-3.37-13.4,0-4.49.76-8.32,2.27-11.5,1.51-3.17,3.64-5.77,6.37-7.8,2.73-2.03,5.92-3.59,9.56-4.69,3.64-1.1,7.58-1.79,11.83-2.09,4.59-.34,8.26-.76,11.02-1.25,2.76-.49,4.76-1.21,6.01-2.16,1.24-.95,1.87-2.21,1.87-3.77v-.29c0-1.42-.38-2.61-1.13-3.59-.76-.98-1.82-1.72-3.19-2.23-1.37-.51-3-.77-4.91-.77s-3.54.27-5.05.81c-1.51.54-2.77,1.34-3.77,2.42-1,1.07-1.67,2.44-2.01,4.1l-26.51-2.64c.78-4.59,2.68-8.76,5.71-12.52,3.03-3.76,7.21-6.76,12.56-9.01,5.35-2.25,11.85-3.37,19.52-3.37,5.81,0,11.07.68,15.78,2.05,4.71,1.37,8.74,3.27,12.09,5.71,3.34,2.44,5.91,5.29,7.69,8.53,1.78,3.25,2.67,6.75,2.67,10.51v56.1h-27.54v-11.57h-.59c-1.66,3.08-3.65,5.56-5.97,7.43-2.32,1.88-4.94,3.26-7.87,4.14s-6.18,1.32-9.74,1.32ZM374.52,326.71c2.25,0,4.36-.46,6.34-1.39,1.98-.93,3.59-2.26,4.83-3.99,1.24-1.73,1.87-3.85,1.87-6.34v-6.74c-.78.29-1.61.59-2.49.88s-1.82.56-2.82.81c-1,.25-2.03.46-3.08.66-1.05.2-2.16.39-3.33.59-2.3.34-4.16.92-5.6,1.72s-2.5,1.78-3.19,2.93c-.68,1.15-1.03,2.43-1.03,3.85,0,1.51.37,2.8,1.1,3.85.73,1.05,1.73,1.84,3,2.38,1.27.54,2.73.81,4.39.81Z" fill="#fff"/><path d="M461.09,234.86v109.13h-29.44v-109.13h29.44Z" fill="#fff"/><path d="M557.92,374.61h-29.44v-44.09h-.44c-1.12,2.78-2.73,5.26-4.83,7.43-2.1,2.17-4.64,3.89-7.62,5.16s-6.4,1.9-10.25,1.9c-5.81,0-11.17-1.53-16.08-4.58-4.91-3.05-8.83-7.68-11.76-13.88-2.93-6.2-4.39-14.01-4.39-23.44,0-9.91,1.54-17.96,4.62-24.13,3.08-6.18,7.05-10.7,11.94-13.59,4.88-2.88,10.01-4.32,15.38-4.32,4.05,0,7.61.7,10.66,2.09,3.05,1.39,5.62,3.26,7.69,5.6,2.07,2.34,3.62,4.91,4.65,7.69h.73v-14.36h29.15v112.5ZM516.17,322.46c2.69,0,5.01-.79,6.96-2.38,1.95-1.59,3.45-3.82,4.5-6.7,1.05-2.88,1.57-6.3,1.57-10.25s-.53-7.53-1.57-10.44c-1.05-2.9-2.55-5.14-4.5-6.7-1.95-1.56-4.27-2.34-6.96-2.34s-4.98.78-6.88,2.34c-1.9,1.56-3.36,3.8-4.36,6.7-1,2.91-1.5,6.38-1.5,10.44s.5,7.46,1.5,10.36c1,2.91,2.45,5.13,4.36,6.67s4.2,2.31,6.88,2.31Z" fill="#fff"/><path d="M601.42,345.02c-5.76,0-10.79-1.32-15.09-3.96s-7.62-6.27-9.96-10.91c-2.34-4.64-3.52-9.94-3.52-15.89v-52.15h29.44v46c0,4.05,1.03,7.24,3.08,9.56,2.05,2.32,4.93,3.48,8.64,3.48,2.44,0,4.54-.52,6.3-1.57,1.76-1.05,3.12-2.55,4.1-4.5.98-1.95,1.46-4.27,1.46-6.96v-46h29.44v81.88h-27.61l-.59-20.95h.88c-1.86,6.2-4.87,11.41-9.05,15.64-4.17,4.22-10.02,6.34-17.54,6.34Z" fill="#fff"/><path d="M670.27,343.99v-81.88h29.44v81.88h-29.44ZM684.92,253.76c-4,0-7.42-1.32-10.25-3.96s-4.25-5.81-4.25-9.52,1.42-6.95,4.25-9.56c2.83-2.61,6.25-3.92,10.25-3.92s7.42,1.31,10.25,3.92c2.83,2.61,4.25,5.8,4.25,9.56s-1.42,6.88-4.25,9.52-6.25,3.96-10.25,3.96Z" fill="#fff"/><path d="M753.91,345.46c-8.74,0-16.27-1.67-22.6-5.02-6.32-3.34-11.17-8.17-14.54-14.47s-5.05-13.87-5.05-22.71,1.7-15.83,5.09-22.16c3.39-6.32,8.19-11.24,14.39-14.76s13.53-5.27,21.97-5.27c6.2,0,11.8.96,16.81,2.89,5.01,1.93,9.29,4.71,12.86,8.35,3.56,3.64,6.3,8.05,8.2,13.22,1.9,5.18,2.86,11.04,2.86,17.58v6.74h-73.1v-16.11h59.33l-13.77,3.37c0-3.32-.49-6.12-1.46-8.39s-2.42-4-4.32-5.2c-1.9-1.2-4.27-1.79-7.11-1.79s-5.2.6-7.1,1.79c-1.9,1.2-3.35,2.93-4.32,5.2s-1.46,5.07-1.46,8.39v11.72c0,3.61.57,6.6,1.72,8.97,1.15,2.37,2.77,4.13,4.87,5.27,2.1,1.15,4.54,1.72,7.32,1.72,2,0,3.82-.28,5.46-.84,1.63-.56,3.04-1.37,4.21-2.42,1.17-1.05,2.05-2.33,2.64-3.85l25.93,3.81c-1.37,4.88-3.78,9.12-7.25,12.71-3.47,3.59-7.85,6.36-13.15,8.31-5.3,1.95-11.44,2.93-18.42,2.93Z" fill="#fff"/><path d="M805.62,343.99v-81.88h28.56v15.67h.88c1.46-5.81,3.82-10.05,7.07-12.71,3.25-2.66,7.04-3.99,11.39-3.99,1.27,0,2.54.1,3.81.29,1.27.2,2.49.49,3.66.88v25.05c-1.46-.54-3.26-.92-5.38-1.14-2.12-.22-3.94-.33-5.46-.33-2.88,0-5.47.65-7.76,1.94-2.29,1.29-4.09,3.1-5.38,5.42-1.29,2.32-1.94,5.04-1.94,8.17v42.63h-29.44Z" fill="#fff"/></svg>