<?xml version="1.0" encoding="UTF-8"?><svg id="Layer_1" xmlns="http://www.w3.org/2000/svg" viewBox="0 0 1014.93 834.08"><path d="M892.84,558.01q-192.5,0-385-.47c-192.5,0-192.5-.62-385-.62-2.75,0-4.9-.84-4.9-3.59,0-134.93-1.52-134.93-1.52-269.85s.13-134.93.13-269.85c0-2.75,3.53-5.4,6.28-5.4,192.5,0,192.5,1.5,385,1.5s192.5-2.22,385-2.22c2.75,0,6.01,3.37,6.01,6.12,0,134.93-1.88,134.93-1.88,269.85q0,134.93.18,269.85c0,2.75-1.55,4.68-4.3,4.68Z" fill="none" stroke="#fff" stroke-linecap="round" stroke-linejoin="round" stroke-width="15"/><polygon points="185.99 602.82 507.89 603.36 829.98 601.35 865.08 706.01 507.81 707.17 150.98 705.61 185.99 602.82" fill="none" stroke="#fff" stroke-linecap="round" stroke-linejoin="round" stroke-width="15"/><polygon points="118.59 580.92 7.5 826.58 341.14 825.49 674.47 826.25 1007.43 824.19 898.5 577.95 507.84 578.35 118.59 580.92" fill="none" stroke="#fff" stroke-linecap="round" stroke-linejoin="round" stroke-width="15"/></svg>