<?xml version="1.0" encoding="UTF-8"?><svg id="Layer_1" xmlns="http://www.w3.org/2000/svg" viewBox="0 0 1015.36 833.85"><path d="M892.94,557.78c-192.5,0-192.5,1.05-385,1.05-192.5,0-192.5-1.09-385-1.09-2.75,0-5.64-1.97-5.64-4.72q0-134.93.12-269.85c0-134.93-.62-134.93-.62-269.85,0-2.75,3.39-4.91,6.14-4.91,192.5,0,192.5-.76,385-.76s192.5-.14,385-.14c2.75,0,4.24,3.06,4.24,5.81q0,134.93.07,269.85t.34,269.85c0,2.75-1.89,4.76-4.64,4.76Z" fill="#ffb347"/><path d="M892.94,557.78c-192.5,0-192.5,1.05-385,1.05-192.5,0-192.5-1.09-385-1.09-2.75,0-5.64-1.97-5.64-4.72q0-134.93.12-269.85c0-134.93-.62-134.93-.62-269.85,0-2.75,3.39-4.91,6.14-4.91,192.5,0,192.5-.76,385-.76s192.5-.14,385-.14c2.75,0,4.24,3.06,4.24,5.81q0,134.93.07,269.85t.34,269.85c0,2.75-1.89,4.76-4.64,4.76Z" fill="none" stroke="#fff" stroke-linecap="round" stroke-linejoin="round" stroke-width="15"/><polygon points="186.42 603.66 507.99 601.55 829.68 602.44 864.56 703.75 507.91 705.56 151.27 704.7 186.42 603.66" fill="none" stroke="#fff" stroke-linecap="round" stroke-linejoin="round" stroke-width="15"/><polygon points="118 579.2 7.5 826.35 341.24 823.83 674.58 826.26 1007.86 824.18 897.58 579.72 507.94 578.47 118 579.2" fill="none" stroke="#fff" stroke-linecap="round" stroke-linejoin="round" stroke-width="15"/><path d="M210.38,264.12c5.85,0,10.96.62,15.32,1.85,4.36,1.23,7.75,2.95,10.16,5.16,2.41,2.21,3.62,4.85,3.62,7.93,0,2.06-.62,3.98-1.85,5.78-1.23,1.8-3.03,2.69-5.39,2.69-1.64,0-3-.23-4.08-.69s-2.03-1.05-2.85-1.77c-.82-.72-1.8-1.39-2.93-2-1.03-.62-2.59-1.1-4.7-1.46-2.11-.36-3.67-.54-4.7-.54-5.24,0-9.68,1.13-13.32,3.39-3.65,2.26-6.44,5.31-8.39,9.16-1.95,3.85-2.93,8.29-2.93,13.32s1,9.32,3,13.17c2,3.85,4.77,6.91,8.32,9.16,3.54,2.26,7.62,3.39,12.24,3.39,2.56,0,4.77-.15,6.62-.46,1.85-.31,3.39-.77,4.62-1.39,1.44-.82,2.72-1.69,3.85-2.62,1.13-.92,2.82-1.39,5.08-1.39,2.67,0,4.72.85,6.16,2.54,1.44,1.69,2.16,3.77,2.16,6.24s-1.44,4.9-4.31,7.01c-2.88,2.11-6.65,3.8-11.32,5.08-4.67,1.28-9.73,1.92-15.17,1.92-8.11,0-15.14-1.87-21.1-5.62-5.96-3.75-10.55-8.85-13.78-15.32-3.23-6.47-4.85-13.71-4.85-21.71,0-8.42,1.72-15.84,5.16-22.25,3.44-6.42,8.21-11.45,14.32-15.09,6.11-3.64,13.11-5.47,21.02-5.47Z" fill="#fff"/><path d="M314.95,265.66c2.67,0,4.88.9,6.62,2.7,1.75,1.8,2.62,4.03,2.62,6.7v39.12c0,10.88-3.03,19.51-9.09,25.87-6.06,6.37-14.78,9.55-26.18,9.55s-20.1-3.18-26.1-9.55c-6.01-6.36-9.01-14.99-9.01-25.87v-39.12c0-2.67.87-4.9,2.62-6.7,1.74-1.8,3.95-2.7,6.62-2.7s4.88.9,6.62,2.7c1.74,1.8,2.62,4.03,2.62,6.7v39.12c0,6.26,1.39,10.91,4.16,13.94,2.77,3.03,6.93,4.54,12.47,4.54s9.86-1.51,12.63-4.54c2.77-3.03,4.16-7.67,4.16-13.94v-39.12c0-2.67.87-4.9,2.62-6.7,1.74-1.8,3.95-2.7,6.62-2.7Z" fill="#fff"/><path d="M411.66,264.12c2.67,0,4.88.87,6.62,2.62,1.74,1.75,2.62,4,2.62,6.78v65.14c0,2.67-.87,4.9-2.62,6.7-1.75,1.8-3.95,2.69-6.62,2.69s-4.88-.9-6.62-2.69c-1.75-1.8-2.62-4.03-2.62-6.7v-7.55l3.39,1.39c0,1.34-.72,2.95-2.16,4.85-1.44,1.9-3.39,3.77-5.85,5.62-2.46,1.85-5.37,3.41-8.7,4.7-3.34,1.28-6.96,1.92-10.86,1.92-7.08,0-13.5-1.82-19.25-5.47-5.75-3.64-10.29-8.67-13.63-15.09-3.34-6.42-5-13.78-5-22.1s1.67-15.84,5-22.25c3.33-6.42,7.83-11.45,13.47-15.09,5.65-3.64,11.91-5.47,18.79-5.47,4.41,0,8.47.67,12.17,2,3.7,1.34,6.9,3.03,9.62,5.08,2.72,2.06,4.83,4.13,6.31,6.24,1.49,2.11,2.23,3.88,2.23,5.31l-5.54,2v-11.24c0-2.67.87-4.9,2.62-6.7,1.75-1.8,3.95-2.7,6.62-2.7ZM380.55,332.65c4.52,0,8.47-1.13,11.86-3.39,3.39-2.26,6.03-5.34,7.93-9.24,1.9-3.9,2.85-8.26,2.85-13.09s-.95-9.34-2.85-13.24c-1.9-3.9-4.54-6.98-7.93-9.24-3.39-2.26-7.34-3.39-11.86-3.39s-8.32,1.13-11.7,3.39c-3.39,2.26-6.03,5.34-7.93,9.24-1.9,3.9-2.85,8.32-2.85,13.24s.95,9.19,2.85,13.09c1.9,3.9,4.54,6.98,7.93,9.24,3.39,2.26,7.29,3.39,11.7,3.39Z" fill="#fff"/><path d="M460.94,338.66c0,2.67-.9,4.9-2.7,6.7-1.8,1.8-4.03,2.69-6.7,2.69s-4.72-.9-6.47-2.69c-1.75-1.8-2.62-4.03-2.62-6.7v-95.17c0-2.67.9-4.9,2.7-6.7,1.79-1.79,4.03-2.69,6.7-2.69s4.85.9,6.54,2.69c1.69,1.8,2.54,4.03,2.54,6.7v95.17Z" fill="#fff"/><path d="M548.41,265.66c2.67,0,4.88.87,6.62,2.62,1.74,1.75,2.62,4,2.62,6.78v94.4c0,2.67-.87,4.9-2.62,6.7-1.75,1.79-3.95,2.69-6.62,2.69s-4.88-.9-6.62-2.69c-1.75-1.8-2.62-4.03-2.62-6.7v-38.35l3.39,1.39c0,1.34-.72,2.95-2.16,4.85-1.44,1.9-3.39,3.77-5.85,5.62-2.46,1.85-5.37,3.41-8.7,4.7-3.34,1.28-6.96,1.92-10.86,1.92-7.08,0-13.5-1.82-19.25-5.47-5.75-3.64-10.29-8.67-13.63-15.09-3.34-6.42-5-13.78-5-22.1s1.67-15.84,5-22.25c3.33-6.42,7.83-11.45,13.47-15.09,5.65-3.64,11.91-5.47,18.79-5.47,4.41,0,8.47.67,12.17,2,3.7,1.34,6.9,3.03,9.62,5.08,2.72,2.06,4.83,4.13,6.31,6.24,1.49,2.11,2.23,3.88,2.23,5.31l-5.54,2v-9.7c0-2.67.87-4.9,2.62-6.7,1.75-1.8,3.95-2.7,6.62-2.7ZM517.3,332.65c4.52,0,8.47-1.13,11.86-3.39,3.39-2.26,6.03-5.34,7.93-9.24,1.9-3.9,2.85-8.26,2.85-13.09s-.95-9.34-2.85-13.24c-1.9-3.9-4.54-6.98-7.93-9.24-3.39-2.26-7.34-3.39-11.86-3.39s-8.32,1.13-11.7,3.39c-3.39,2.26-6.03,5.34-7.93,9.24-1.9,3.9-2.85,8.32-2.85,13.24s.95,9.19,2.85,13.09c1.9,3.9,4.54,6.98,7.93,9.24,3.39,2.26,7.29,3.39,11.7,3.39Z" fill="#fff"/><path d="M638.81,265.66c2.67,0,4.88.9,6.62,2.7,1.75,1.8,2.62,4.03,2.62,6.7v39.12c0,10.88-3.03,19.51-9.09,25.87-6.06,6.37-14.78,9.55-26.18,9.55s-20.1-3.18-26.1-9.55c-6.01-6.36-9.01-14.99-9.01-25.87v-39.12c0-2.67.87-4.9,2.62-6.7,1.74-1.8,3.95-2.7,6.62-2.7s4.88.9,6.62,2.7c1.74,1.8,2.62,4.03,2.62,6.7v39.12c0,6.26,1.39,10.91,4.16,13.94,2.77,3.03,6.93,4.54,12.47,4.54s9.86-1.51,12.63-4.54c2.77-3.03,4.16-7.67,4.16-13.94v-39.12c0-2.67.87-4.9,2.62-6.7,1.74-1.8,3.95-2.7,6.62-2.7Z" fill="#fff"/><path d="M676.07,255.65c-3.49,0-5.96-.56-7.39-1.69-1.44-1.13-2.16-3.13-2.16-6.01v-2.93c0-2.98.79-5,2.39-6.08,1.59-1.08,4.03-1.62,7.31-1.62,3.59,0,6.11.57,7.55,1.69,1.44,1.13,2.16,3.13,2.16,6.01v2.93c0,2.98-.77,5-2.31,6.08-1.54,1.08-4.06,1.62-7.55,1.62ZM685.47,338.66c0,2.67-.87,4.9-2.62,6.7-1.75,1.8-3.95,2.69-6.62,2.69s-4.88-.9-6.62-2.69c-1.75-1.8-2.62-4.03-2.62-6.7v-63.6c0-2.67.87-4.9,2.62-6.7,1.75-1.8,3.95-2.7,6.62-2.7s4.88.9,6.62,2.7c1.74,1.8,2.62,4.03,2.62,6.7v63.6Z" fill="#fff"/><path d="M743.22,349.59c-8.73,0-16.3-1.82-22.72-5.47-6.42-3.64-11.34-8.6-14.78-14.86-3.44-6.26-5.16-13.35-5.16-21.25,0-9.24,1.87-17.12,5.62-23.64,3.75-6.52,8.65-11.52,14.71-15.01,6.06-3.49,12.47-5.24,19.25-5.24,5.24,0,10.19,1.08,14.86,3.23,4.67,2.16,8.8,5.11,12.4,8.85,3.59,3.75,6.44,8.08,8.55,13.01,2.1,4.93,3.16,10.16,3.16,15.71-.1,2.46-1.08,4.47-2.93,6.01-1.85,1.54-4,2.31-6.47,2.31h-58.83l-4.62-15.4h56.52l-3.39,3.08v-4.16c-.21-2.98-1.26-5.65-3.16-8.01-1.9-2.36-4.26-4.23-7.08-5.62-2.83-1.39-5.83-2.08-9.01-2.08s-5.96.41-8.62,1.23c-2.67.82-4.98,2.21-6.93,4.16-1.95,1.95-3.49,4.57-4.62,7.85-1.13,3.29-1.69,7.44-1.69,12.47,0,5.54,1.16,10.24,3.46,14.09,2.31,3.85,5.29,6.78,8.93,8.78,3.64,2,7.52,3,11.63,3,3.8,0,6.83-.31,9.09-.92,2.26-.62,4.08-1.36,5.47-2.23,1.39-.87,2.64-1.62,3.77-2.23,1.85-.92,3.59-1.39,5.24-1.39,2.26,0,4.13.77,5.62,2.31,1.49,1.54,2.23,3.34,2.23,5.39,0,2.77-1.44,5.29-4.31,7.55-2.67,2.26-6.42,4.24-11.24,5.93-4.83,1.69-9.81,2.54-14.94,2.54Z" fill="#fff"/><path d="M804.51,348.05c-2.67,0-4.88-.9-6.62-2.69-1.75-1.8-2.62-4.03-2.62-6.7v-63.6c0-2.67.87-4.9,2.62-6.7,1.74-1.8,3.95-2.7,6.62-2.7s4.88.9,6.62,2.7c1.74,1.8,2.62,4.03,2.62,6.7v14.48l-1.08-10.32c1.13-2.46,2.59-4.64,4.39-6.54,1.79-1.9,3.82-3.49,6.08-4.77,2.26-1.28,4.67-2.23,7.24-2.85,2.57-.62,5.13-.92,7.7-.92,3.08,0,5.67.87,7.78,2.62,2.1,1.75,3.16,3.8,3.16,6.16,0,3.39-.87,5.83-2.62,7.31-1.75,1.49-3.65,2.23-5.7,2.23s-3.72-.36-5.31-1.08c-1.59-.72-3.41-1.08-5.47-1.08-1.85,0-3.72.44-5.62,1.31-1.9.87-3.65,2.23-5.24,4.08-1.59,1.85-2.88,4.13-3.85,6.85-.98,2.72-1.46,5.93-1.46,9.62v36.5c0,2.67-.87,4.9-2.62,6.7-1.75,1.8-3.95,2.69-6.62,2.69Z" fill="#fff"/></svg>