<?xml version="1.0" encoding="UTF-8"?>
<svg id="Layer_1" xmlns="http://www.w3.org/2000/svg" xmlns:xlink="http://www.w3.org/1999/xlink" version="1.1" viewBox="0 0 1000 1000">
  <!-- Generator: Adobe Illustrator 30.1.0, SVG Export Plug-In . SVG Version: 2.1.1 Build 136)  -->
  <defs>
    <style>
      .st0 {
        fill: #ffcc94;
      }

      .st1 {
        fill: #e0ac69;
      }

      .st2 {
        fill: none;
        stroke: red;
      }

      .st3 {
        fill: #8d5524;
      }

      .st4 {
        fill: #f0f;
      }

      .st5 {
        fill: #fff000;
      }

      .st6 {
        fill: url(#linear-gradient);
      }

      .st7 {
        fill: #093;
      }

      .st8 {
        fill: #ffe0bd;
      }

      .st9 {
        fill: #006;
      }

      .st10 {
        fill: #c33;
      }

      .st11 {
        fill: red;
      }
    </style>
    <linearGradient id="linear-gradient" x1="500" y1="1000" x2="500" y2="0" gradientUnits="userSpaceOnUse">
      <stop offset="0" stop-color="#fff"/>
      <stop offset="1" stop-color="#00c0f3"/>
    </linearGradient>
  </defs>
  <rect class="st6" x="0" width="1000" height="1000"/>
  <path class="st9" d="M301.51,453.93c0,34.81-14.35,63.43-43.08,85.94-28.71,22.49-67.37,33.75-116.02,33.75l-6.3,66.73-115.3-18.9,67.63-243.14c14.36-4.15,25.96-7.13,34.76-9.07,27.44-6.4,49.27-9.59,65.65-9.59,32.68,0,59.59,8.65,80.84,25.83,21.18,17.27,31.82,40.11,31.82,68.45ZM204.7,457.85c0-6.98-2.3-12.68-6.85-17.04-4.57-4.43-11.58-6.71-21.05-6.71-3.57,0-7.43.4-11.45,1.01-4.12.63-7.93,1.27-11.52,1.87l-4.9,59.24c16.93,0,30.5-3.47,40.59-10.4,10.11-7.03,15.17-16.27,15.17-27.97Z"/>
  <path class="st9" d="M676.14,391.74l-99.45,81.41,62.95,87.88-113.22,79.32-54.24-139.04-28.64,118.64-118.28-11.82,95.73-237.27,83.21-2.61-24.23,96.53,100.52-105.15,95.65,32.09Z"/>
  <path class="st9" d="M980.59,359.65l-22.5,72.17-89.99,8.11-11.25,46.72,56.69-3.03-12.91,58.85-55.61,4.35-21.04,93.53-124.09-6.76,71.08-185.85-21.82,2.38,26.54-72.21,204.9-18.26Z"/>
  <path class="st3" d="M157.85,227.31c-.6-16.17,12.05-29.3,26.36-29.3s26.36,13.12,26.36,29.3-11.8,29.3-26.36,29.3c-14.37-.7-25.77-13.35-26.36-29.3Z"/>
  <path d="M178.41,232.54c2.93-.46,2.77-2.88,2.5-4.92-.52-3.69-6.11-4.64-8.16-1.1-1.86,3,1.82,6.6,5.66,6.02Z"/>
  <path d="M192.98,232.15c2.93-.46,2.77-2.88,2.5-4.92-.52-3.69-6.11-4.64-8.16-1.1-1.86,3,1.82,6.6,5.66,6.02Z"/>
  <path class="st10" d="M176,244.4c3.28,0,6.54.07,9.72-.21,2.6-.21,4.68-1.16,7.08-1.42.74.9-1.07,2.3-1.82,3.12-.89.86-1.57,1.77-3.49,1.57-2.78-.24-11.69-1.29-11.63-3.14"/>
  <g>
    <path class="st3" d="M169.11,300.32c-5,9.4-1.39,24.94-.56,35.46-8.25-.43-18.23-.9-23.27,7.39-6.78,11.02,5.18,16.93,14.23,17.86,8.63.88,19.11-.29,22.48-9.97,3.3-9.76-4.28-19.97-3.35-30.03,1.19-10.77,5.33-21.05-8.72-20.99l-.81.28Z"/>
    <path class="st3" d="M200.28,255.85c5.09-2.32,5.91-1.18,11.1-2.59,5.94-1.42,11.96-2.54,17.9-4.04,2.62-.68,5.89-2.42,8.52-2.16,2.29-10.36,13.21-19.81,21.86-12.36,9.01,7.96,3.29,22.7-6.71,23.71-5.29.61-10.15-1.58-14.86-4.36-5.27,3.87-12.72,4.61-18.49,6.89-5.85,2.29-14.29,3.4-19.22,6.69-.11-3.86-.12-2.45-.22-6.16l.11-5.62Z"/>
    <path class="st3" d="M199.67,300.3c5,9.4,1.39,24.94.56,35.46,8.25-.43,18.23-.9,23.27,7.39,6.78,11.02-5.18,16.93-14.23,17.86-8.63.88-19.11-.29-22.48-9.97-3.3-9.76,4.28-19.97,3.35-30.03-1.19-10.77-5.33-21.05,8.72-20.99l.81.28Z"/>
    <path class="st3" d="M168.59,255.85c-5.09-2.32-5.91-1.18-11.1-2.59-5.94-1.42-11.96-2.54-17.9-4.04-2.62-.68-5.89-2.42-8.52-2.16-2.29-10.36-13.21-19.81-21.86-12.36-9.01,7.96-3.29,22.7,6.71,23.71,5.29.61,10.15-1.58,14.86-4.36,5.27,3.87,12.72,4.61,18.49,6.89,5.85,2.29,14.29,3.4,19.22,6.69.11-3.86.12-2.45.22-6.16l-.11-5.62Z"/>
  </g>
  <path d="M204.16,215.67c.44,2,2.3,3.48,2.98,5.41.77,2.2.38,4.84,1.45,6.92,1.02,1.99,1.65,21.55,3.74,20.73,1.48-.58,3.31-19.73,3.46-21.32.36-3.72-.16-7.52-1.51-11.01-.86-2.23-2.05-4.32-3.06-6.5-.72-1.55-1.35-3.16-2.29-4.59-1.18-1.81-2.64-4.56-4.38-5.84-2.26-1.66-6.32-2.32-8.93-3.24-4.02-1.41-6.76-2.1-11.12-1.94-2.48.09-4.98-.08-7.41.45s-4.82,1.27-7.1,2.2c-2.29.93-3.91,1.48-6.09,2.72s-3.72,3.84-5.14,5.86c-1.23,1.76-3.2,3.22-3.78,5.43-.64,2.4-1.06,4.9-1.63,7.16-.41,1.64-.35,6.3-.01,11.59.53,8.15,1.71,17.78,2.83,20.14,2.59.4,3.77-19.54,3.92-22.16.19-3.37.35-5.22,1.26-7.68.4-1.07,3.17-3.31,4.05-4s5.9-3.27,6.87-3.77c4.48-2.31,10.08-2.23,13.69-1.51.9.18,2.35-.29,7.03.22,5.47.6,11.1,4.36,11.19,4.74Z"/>
  <path d="M159.01,308.2c18.75,2.95,37.02.79,49.99.49,2.28-.05,3.28-.78,1.58-3.24-2.75-3.99-6.43-12.88-8.63-17.81-.35-.79-14.49-.02-16.01-.03-5.04,0-10.08-.02-15.12-.03-2.78,0-3.17-.16-4.5,2.03-1.13,1.86-2.07,3.86-2.96,5.83-1.86,4.12-8.78,12.05-4.35,12.75Z"/>
  <path class="st5" d="M202.62,288.18c.52-.39.1-.78-.02-1.33-1.11-5.03-1.04-9.34-1.33-13.83-.08-1.26-.11-2.6.59-3.7s3.09.16,3.64-1.12c1.77-4.11-.17-9.6-.12-14.39-3.3-1.06-6.86.38-10.25,1.18-3.4.81-7.01,1.83-10.61,1.8s-7.22-1.09-10.63-2.11c-1.99-.59-3.94-1.34-6.03-1.56-1.08-.11-2.16-.08-3.25-.05-.41.01-.88.05-1.15.32-.22.22-.24.54-.25.83-.23,4.66-3.65,10.38-.69,13.98.98,1.19,3.05.44,4.58.66-.46,4.46-.54,8.95-.22,13.42.08,1.19-.26,4.56.68,5.5,1.13,1.13,4.39.52,6.01.51,2.86-.01,27.28,1.18,29.03-.12Z"/>
  <path class="st2" d="M297.57,208.71"/>
  <path class="st11" d="M116.07,231.97c3.18-26.07,8.41-76.94,24.87-103.24,15.28-24.42,41.92-25.28,43.65-25.24,12.63.29,33.28,5.04,42.67,15.14,13.37,14.36,19.55,35.91,23.82,55.1,4.57,20.54,4.86,39.27,2.45,58.31,10.64-28.78,4.93-46.79.22-71.67-4.58-24.19-21.57-50.43-39.68-58.38-8.43-3.7-21.79-4.95-29.49-5.49-36.69-2.56-57.82,32.99-66.12,72.12-4.27,20.13-6.68,40.09-2.91,62.25"/>
  <path class="st0" d="M435.53,236.18c-.6-16.17,12.05-29.3,26.36-29.3s26.36,13.12,26.36,29.3-11.8,29.3-26.36,29.3c-14.37-.7-25.77-13.35-26.36-29.3Z"/>
  <path class="st7" d="M451.43,230.37c2.31-1.02,4.6.07,5.49,2.37,1.53,4.12-1.12,5.84-4.78,5.5-4.57-.41-4.69-5.86-.71-7.88Z"/>
  <path class="st7" d="M465.76,229.4c2.31-1.02,4.6.07,5.49,2.37,1.53,4.12-1.12,5.84-4.78,5.5-4.57-.41-4.69-5.86-.71-7.88Z"/>
  <path class="st11" d="M450.46,248.6c3.94.98,16.23,4.67,19.69-2.38-2,6.94-3.38,8.65-8.82,8.62-4.71-.18-7.15-2.8-10.63-6.18l-.24-.06Z"/>
  <path class="st11" d="M436.79,244.2c-1.28-11.04.32-12.79,5.94-22.54,4.88-8.45,15.15-10.04,24.56-7.45s18.03,9.41,20.45,18.86c.86,3.37,1.04,7.72,4.12,9.33,3.8,1.99,7.6.38,10.39-2.41,2.35-2.35,3.13-6.45,2.76-10.39-.15-1.61-.43-3.26-1.34-4.59s-3.13-3.19-4.66-2.68c4.05-1.7,4.13-8.22-.33-11.58-1.66-1.25-8.5-5.17-9.28-3.24,3.38-6.01-7.66-10.33-13.83-11.27-2.26-.34-6.05.38-5.65,3.28-.53-3.98-4.53-3.68-8.75-3.96-2.2-.15-9.85,1.09-7.86,3.97-1.76-3.96-9.18-3.32-14.23-.62-1.69.91-5.79,4.11-6.46,5.9s.04,4.21,1.86,4.81c-4.64-2.25-9.05,1.6-11.26,5.52-.25.44-3.23,6.59-2.61,9.03s2.98,3.11,5.74,3.31c-6.6-1.06-9.18,4.87-9.92,9.8-.29,1.91-.05,3.99,1.12,5.53s3.42,2.33,5.14,1.44c-2.02,1.56-3.19,2.66-.17,6.76,1.51,2.05,4.79,2.07,7.11,1.01s7.37-6.24,7.18-7.83Z"/>
  <g>
    <path class="st0" d="M446.55,309.18c-5,9.4-1.39,24.94-.56,35.46-8.25-.43-18.23-.9-23.27,7.39-6.78,11.02,5.18,16.93,14.23,17.86,8.63.88,19.11-.29,22.48-9.97,3.3-9.76-4.28-19.97-3.35-30.03,1.19-10.77,5.33-21.05-8.72-20.99l-.81.28Z"/>
    <path class="st0" d="M477.72,264.72c5.09-2.32,5.91-1.18,11.1-2.59,5.94-1.42,11.96-2.54,17.9-4.04,2.62-.68,5.89-2.42,8.52-2.16,2.29-10.36,13.21-19.81,21.86-12.36,9.01,7.96,3.29,22.7-6.71,23.71-5.29.61-10.15-1.58-14.86-4.36-5.27,3.87-12.72,4.61-18.49,6.89-5.85,2.29-14.29,3.4-19.22,6.69-.11-3.86-.12-2.45-.22-6.16l.11-5.62Z"/>
    <path class="st0" d="M477.11,309.16c5,9.4,1.39,24.94.56,35.46,8.25-.43,18.23-.9,23.27,7.39,6.78,11.02-5.18,16.93-14.23,17.86-8.63.88-19.11-.29-22.48-9.97-3.3-9.76,4.28-19.97,3.35-30.03-1.19-10.77-5.33-21.05,8.72-20.99l.81.28Z"/>
    <path class="st0" d="M446.03,264.72c-5.09-2.32-5.91-1.18-11.1-2.59-5.94-1.42-11.96-2.54-17.9-4.04-2.62-.68-5.89-2.42-8.52-2.16-2.29-10.36-13.21-19.81-21.86-12.36-9.01,7.96-3.29,22.7,6.71,23.71,5.29.61,10.15-1.58,14.86-4.36,5.27,3.87,12.72,4.61,18.49,6.89,5.85,2.29,14.29,3.4,19.22,6.69.11-3.86.12-2.45.22-6.16l-.11-5.62Z"/>
  </g>
  <path class="st4" d="M496.62,325.34c.49-3.26-3.34-11.1-5.94-16.44-2.19-4.5-4.49-8.94-5.36-13.87-1.68-9.56-5.33-18.24-6.79-27.83-.2-1.33-.03-2.36-.81-2.48-1.78-.27-2.1.1-4.05.1-3.57,0-7.11.66-10.78.64-4.32-.03-8.61-.16-12.63-1.5-1.09-.36-2.35-.39-3.49-.08-.74.2-1.43.54-1.99,1.02-.54.46-.83,1.15-1.1,1.81-6.45,15.9-8.93,33.18-16.28,48.75-1.21,2.57-4.1,5.85-1.27,8.02,2.07,1.58,7.99.63,10.37.68,9.49.19,18.97.38,28.46.56,2.65.05,31.6,1.05,31.66.63Z"/>
  <path class="st7" d="M527.66,267.74c-2.59,8.56-3.72,18.35,4.96,24.14-1.05-4.34-4.9-7.7-5.52-12.1-.36-2.94,4.5-11.67.83-11.8l-.27-.24Z"/>
  <path class="st7" d="M537.11,242.7c1.53-6.15,13.55-29.65,3.1-33.5-2.6-1.01-6.53.83-8.99,1.78,4.94-5.48,10.69-5.48,13.92,1.89,2.88,6.6.16,14.07-2.61,20.3-1.47,3.24-3.23,6.22-5.13,9.25l-.29.28Z"/>
  <path class="st5" d="M526.09,219.99c-4.51-.49-6.78-10.1-2.62-12.37,6.05-3.28,10.89,13.33,2.62,12.37Z"/>
  <g>
    <path class="st4" d="M528.74,207.28c.89-3.83,2.87-13.39,7.38-14.49,6.91-1.66,1.35,9.34-.91,11.36-1.9,1.7-4.16,2.72-6.47,3.42v-.29Z"/>
    <path class="st4" d="M524.19,206.52c-4.35-5.3-5.62-14.15-.46-19.71,6.48-7.03,6.05,6.53,5.14,10.21-.73,3.47-2.15,6.62-4.13,9.5h-.55Z"/>
    <path class="st4" d="M520.75,209c-5.63-1.15-12.83-2.82-15.03-9.18-3.15-9.35,8.17-6.02,11.43-1.01,1.94,2.98,2.87,6.68,4.13,9.94l-.54.24Z"/>
    <path class="st4" d="M520.75,213.25c-2.77-.58-8.46-2.22-10.97.02-1.58,1.31-2.01,3.58-.21,4.97,3.19,2.56,8.24-2.86,10.73-4.53l.45-.46Z"/>
    <path class="st4" d="M521.78,217.16c-5.79,3.32-11.76,11.9-11.62,18.8.16,9.36,8.72-6.05,9.87-8.69,1.23-2.98,2.21-6.07,2.01-9.38l-.26-.74Z"/>
    <path class="st4" d="M526.73,220.43c-1.69,4.26-5.97,15.05-2.57,19.35,3.99,5.35,6.52-7.74,6.4-10.62-.14-3.27-1.27-6.05-3.6-8.51l-.23-.22Z"/>
    <path class="st4" d="M530.41,218.91c1.31,2.43,6.33,12.5,10.17,7.14,3.97-5.5-6.58-7.35-9.41-7.38l-.76.25Z"/>
    <path class="st4" d="M531.17,214.72c2.15.66,9.86,3.18,8.71-1.71-1.02-4.55-6.69-1.21-8.21.97l-.5.75Z"/>
  </g>
  <g>
    <path class="st8" d="M892.93,339.98c1.93,14.97-9.09,28.27-22.81,29.51-13.39,1.21-26.38-9.9-27.74-24.94-1.29-14.27,8.85-28.25,22.81-29.51,13.84-.59,25.83,10.17,27.74,24.94Z"/>
    <path class="st8" d="M876.45,270.14c4.13-9.82-.87-24.96-2.64-35.37,8.26-.31,18.23-.75,22.51-9.46,5.76-11.58-6.69-16.4-15.78-16.5-8.67-.1-19.01,2.01-21.49,11.96-2.41,10.02,6.07,19.51,6.04,29.61-.21,10.83-3.41,21.45,10.58,20.11l.78-.35Z"/>
    <path class="st8" d="M846.01,272.91c-5.83-8.91-3.63-24.71-3.75-35.27-8.18,1.17-18.07,2.54-23.84-5.26-7.75-10.36,3.63-17.33,12.57-19.07,8.51-1.65,19.06-1.44,23.29,7.91,4.17,9.42-2.47,20.28-.63,30.21,2.15,10.62,7.2,20.49-6.8,21.69l-.83-.21Z"/>
    <path class="st8" d="M877.4,313.25c2.7,4.89,4.03,4.47,7.36,8.7,3.92,4.68,8.07,9.18,11.96,13.92,1.7,2.11,3.28,5.46,5.55,6.82-4.35,9.69-1.22,23.77,10.16,22.97,11.98-1.02,16.19-16.25,8.76-23.03-3.88-3.64-9.08-4.79-14.53-5.36-1.92-6.25-7.46-11.29-10.72-16.56-3.33-5.33-9.44-11.26-11.43-16.84-2.39,3.03-1.56,1.9-3.85,4.81l-3.27,4.57Z"/>
    <path class="st9" d="M845.36,282.4c-1.18-4.1-1.67-8.42-2.37-12.8-.59-3.71-1.04-7.48-1.42-11.26-.33-3.23-.6-6.47-.86-9.68-.28-3.52.03-7.07-.27-10.48,5.33-.47,9.5-.84,14.83-1.31.1,4.97.82,10.36,1.34,15.72.45,4.64.08,2.68.77,6.93.33,2.01,1.61,4.57,3.35,6.2.58-3.07.86-3.34,1-5.95.14-2.63.14-7.25-.07-9.76-.2-2.38-.53-4.79-.95-7.38-.32-1.95-.29-3.89-.5-6.26,6.73.12,8.38-.64,14.92-1.05.28,3.22.87,7.1,1.41,10.98.54,3.88,1.43,7.73,1.52,10.96.1,3.35.76,6.65,1.09,10.37.24,2.7.4,5.61.3,8.9-.04,1.33-.31,2.04-.83,2.43-.86.66-1.85.37-4.25.61-3.18.31-6.36.62-9.54.93-.85.08-5.59.67-10.13,1.18s-9.27.97-9.35.71Z"/>
    <path class="st8" d="M852.45,315.51c-1.78,5.3-3.16,5.12-5.68,9.88-3.01,5.31-6.3,10.48-9.26,15.84-1.29,2.38-2.24,5.96-4.24,7.7,6.01,8.75,5.47,23.17-5.87,24.42-11.97,1.15-18.84-13.08-12.76-21.08,3.17-4.28,8.08-6.34,13.33-7.88.77-6.49,5.31-12.44,7.58-18.21,2.32-5.84,7.26-12.77,8.22-18.62,2.89,2.55,1.87,1.59,4.65,4.04l4.03,3.91Z"/>
    <path class="st11" d="M845.3,281.86c-1.27,3.81,1.53,7.76,1.97,11.78.36,3.26.05.64,0,4.94,0,.54-1.38,3.76-1.54,4.28-.21.68-1.69,4.04-1.95,4.7-.11.26,1.07,2.16,1.33,2.45,2.39,2.63,1.24,1.35,3.11,4.76.14.26.87,3.06,1.11,3.23.2.14.8,2,1.04,1.98,1.99-.21,3.72-1.22,5.44-2.12,2.27-1.19,4.5-2.35,7.14-2.66,1.83-.22,3.68-.21,5.52-.21,4.65.02,9.34,1.2,10.47.43,1.35-.92,1.98-3.67,3.08-6.35.34-.81,2.8-4.37,2.5-5.2-.29-.83-2.37-3.24-2.96-4.57-1.27-4.11-1.23-5.36-1.48-9.22-.13-2,.33-3.69.1-5.68-.13-1.1-.04-4.73-.8-5.5-1.29-1.32-8.46.46-10.36.64-3.78.37-7.57.73-11.35,1.1-1.3.13-12.07.36-12.35,1.2Z"/>
    <path d="M864.72,337.7c4.46.79,10.15-7.18,5.63-10.78-6.78-5.46-12.93,9.54-5.63,10.78Z"/>
    <path d="M857.7,346.62c1.31-1.91,7.6-3.64,6.57.32-1,3.94-5.47,1.53-6.62-.82"/>
    <path d="M878.48,344.8c-1.67-1.74-8.18-2.27-6.45,1.44,1.7,3.7,5.54.51,6.4-2.01"/>
    <path d="M867.12,359.91c4.67-.26,7.74-1.53,12.86-2.18,3.42-.43,5.7-2.26,11.01-3.9.12,1.86.32,2.96.33,4,.02,1.37.24,2,.78,4.06-.7-.27-1.79,1.13-1.79,1.13,0,0-1.59-.49-2.33-.71-.53-.16-1.01,1.55-1.05,1.96-.24,2.63-.29,1.29-.23,1.92-.88-.62-1.28-.25-2.6-.46-.54-.09-1.24-.27-2.19-.66-.55,1.96-2.06.42-2.81,2.65-1-1.37-2.26.93-4.52,1.36-2.59.24-1.83.18-3.8.33,1.21-.1-.69.05-3.29.31-2.08.2-.81.08-3.45.3-1.01-1.39-2.41.26-3.29-1.4-1.47,1.59-3.17-1.33-3.92.28-1.01-2.05-2.13.09-2.8-1.92-2.2,1.8-1.96-.44-4.14,1.54.04-.44-1.12-2.14-1.97-4.92-.48-1.56-.87-4.13-.91-5.87,0,0,6,2.77,9.31,2.21,2.7-.45,8.03.12,10.77-.04Z"/>
  </g>
  <g>
    <path class="st1" d="M313,842.47c-.6-16.17,12.05-29.3,26.36-29.3s26.36,13.12,26.36,29.3-11.8,29.3-26.36,29.3c-14.37-.7-25.77-13.35-26.36-29.3Z"/>
    <path d="M331.14,845.06c1.87-3.35-8.01-9.18-8.07-1.13-.08,6.09,6.08,4.84,8.07,1.13Z"/>
    <path d="M344.71,840.91c1.87-3.35-8.01-9.18-8.07-1.13-.08,6.09,6.08,4.84,8.07,1.13Z"/>
    <path d="M314.32,832.62c8.04-3.04,16.55-8.31,25.14-8.61,6.85-.24,17.24,3.96,23.38,4.79-.54-5.56-1.31-12.02-6.33-13.49-6.63-1.94-11.05-4.34-17.05-4.34-5.58.24-15.55,4.87-19.64,7.33-4.98,3.04-6.61,8.38-5.5,14.32h0Z"/>
    <path class="st10" d="M333.82,858.91c1.46.03,2.87-.21,4.46-.77,2.93-.96,5.65-1.52,8.61-3.61-1.69,5.9-5.36,7.62-8.45,7.95-2.31.38-4.53.43-6.55-.27-.62-.22-2.47-.67-1.83-2.37.79-2.06,2.98-.79,3.76-.92Z"/>
    <path class="st1" d="M355.13,871c5.09-2.32,5.91-1.18,11.1-2.59,5.94-1.42,11.96-2.54,17.9-4.04,2.62-.68,5.89-2.42,8.52-2.16,2.29-10.36,13.21-19.81,21.86-12.36,9.01,7.96,3.29,22.7-6.71,23.71-5.29.61-10.15-1.58-14.86-4.36-5.27,3.87-12.72,4.61-18.49,6.89-5.85,2.29-14.29,3.4-19.22,6.69-.11-3.86-.12-2.45-.22-6.16l.11-5.62Z"/>
    <path class="st1" d="M323.43,871c-5.09-2.32-5.91-1.18-11.1-2.59-5.94-1.42-11.96-2.54-17.9-4.04-2.62-.68-5.89-2.42-8.52-2.16-2.29-10.36-13.21-19.81-21.86-12.36-9.01,7.96-3.29,22.7,6.71,23.71,5.29.61,10.15-1.58,14.86-4.36,5.27,3.87,12.72,4.61,18.49,6.89,5.85,2.29,14.29,3.4,19.22,6.69.11-3.86.12-2.45.22-6.16l-.11-5.62Z"/>
    <path class="st7" d="M356.75,906.84c.43-.34-.14-2.42-.09-4.29.09-3.67-1.06-12.15-1.3-17.35-.02-.53-.24-1.67-.01-2.14.21-.44,1.19-.17,1.46-.58.58-.86.53-1.99.45-3.04-.21-2.9-.41-5.8-.62-8.7-.04-.58.11-1.04-.38-1.32-.33-.19-1-.36-1.38-.29-1.9.34-3.75.55-5.63.99-3.02.7-5.88,1.92-9.9,1.65-7.73-.51-16.59-2.86-16.99-2.46-1.13,1.11-2.09,11.78-1.04,13.53.56.94,1.34-.44,1.71.16s.29,1.36.2,2.07c-.59,4.73-.95,9.48-1.08,14.24-.04,1.4-1.25,6.13-.39,7.24s4.5.15,5.8.16c6.46.03,16.77,0,23.26.06,3.28.03,5.16.69,5.92.08Z"/>
    <path class="st9" d="M429.09,714.44c6.01-32.6,15.17-85.38,14.05-94.09-3.64,6.55-23.53,124.42-27.19,147.35-3.75,23.49-11.99,72.73-8.29,78.17"/>
    <path class="st9" d="M307.18,687.25c5.99-32.59,19.16-69.82,18.08-78.52-3.66,6.56-27.57,108.82-31.24,131.81-3.7,23.47-22.63,101.76-18.97,107.21"/>
    <path class="st9" d="M400.79,893.8c1.46-9.81,4.42-16.79,3.32-20-3.64,2.42-5.53,19.68-6.62,31.38-.86,9.15-3.18,21.86.46,23.82"/>
    <path class="st9" d="M273.71,895.14c-1.07-10.04.96-18.41-.92-21.34-2.92,3.28-1.27,21.58.64,33.39,1.51,9.3,2.25,20.73,6.27,21.81"/>
    <path class="st1" d="M326.87,910.83c-9.64-4.53-24.98-.17-35.45,1.17.03-8.26,0-18.25-8.51-22.89-11.34-6.24-16.66,6-17.15,15.09-.46,8.66,1.22,19.07,11.06,21.97,9.91,2.82,19.74-5.25,29.83-4.81,10.81.66,21.29,4.3,20.54-9.74l-.32-.8Z"/>
    <path class="st11" d="M279.94,937.94c5.27,3.3,13.63.24,22.89-.02,15.44-.44,33.39-.06,43.76-.43,6.57-.27,49.51,4.32,51.9-4.43,2.14-8.12-28.76-9.46-33.91-9.85-19.45-1.68-40.01-1.68-59.77-.33-3.54.21-40.61,5.31-24.87,15.05Z"/>
    <path class="st1" d="M330.36,917.85c-10.24,2.91-18.95,16.27-25.97,24.16-5.4-6.25-11.98-13.77-21.45-11.67-12.65,2.74-8.62,15.46-3.02,22.64,5.34,6.83,13.44,13.59,22.77,9.31,9.33-4.38,11.44-16.92,19.34-23.22,8.59-6.6,18.88-10.74,9.1-20.83l-.76-.39Z"/>
    <path class="st9" d="M353.87,906.88c.79.03,1.66-.1,2.23.46.6.59.68,1.94.86,2.76.53,2.34.47,3.97.51,6.15.03,1.93-.17,3.96-.48,6.17-.07.48,0,1.01-.29,1.39-.25.33-.67.49-1.06.62-1.99.69-4,1.31-6.02,1.86-2.67.73-5.38,1.35-8.11,1.85-2.73.5-4.84,1.14-7.74,2.77-1.1.62-2.03,2.36-3.29,2.39-1.36.03-2.25-.92-3.33-1.75-2.05-1.59-7.85-3.39-8.28-6.92-.05-.41,1.7-2.19,1.96-2.5-1.17.02-2.34.05-3.5.07-.49,0-1.03,0-1.4-.32-.43-.37-.47-1.02-.47-1.6-.01-2.87-.02-5.73-.03-8.6,0-.97.05-2.07.78-2.7.45-.39,1.07-.53,1.66-.62,1.55-.24,3.04-.86,4.5-1.08,4.61-.67,8.88-.75,13.44-.79s8.95.1,13.45.27c1.56.06,3.03.1,4.62.1Z"/>
  </g>
</svg>