<?xml version="1.0" encoding="UTF-8"?><svg id="Layer_1" xmlns="http://www.w3.org/2000/svg" xmlns:xlink="http://www.w3.org/1999/xlink" viewBox="0 0 512 512"><defs><linearGradient id="linear-gradient" x1="256" y1="512" x2="256" y2="0" gradientUnits="userSpaceOnUse"><stop offset="0" stop-color="#fff"/><stop offset="1" stop-color="#00c0f3"/></linearGradient></defs><rect width="512" height="512" fill="url(#linear-gradient)"/><path d="M154.37,232.41c0,17.82-7.35,32.47-22.06,44-14.7,11.51-34.49,17.28-59.4,17.28l-3.22,34.16-59.04-9.68,34.63-124.49c7.35-2.12,13.29-3.65,17.8-4.64,14.05-3.28,25.23-4.91,33.61-4.91,16.73,0,30.51,4.43,41.39,13.22,10.84,8.84,16.29,20.54,16.29,35.05ZM104.81,234.42c0-3.57-1.18-6.49-3.5-8.72-2.34-2.27-5.93-3.44-10.78-3.44-1.83,0-3.8.21-5.86.52-2.11.32-4.06.65-5.9.96l-2.51,30.33c8.67,0,15.62-1.78,20.78-5.32,5.18-3.6,7.77-8.33,7.77-14.32Z" fill="#006"/><path d="M346.18,200.57l-50.92,41.68,32.23,44.99-57.97,40.61-27.77-71.19-14.67,60.74-60.56-6.05,49.01-121.48,42.6-1.33-12.41,49.42,51.47-53.83,48.97,16.43Z" fill="#006"/><path d="M502.06,184.14l-11.52,36.95-46.08,4.15-5.76,23.92,29.03-1.55-6.61,30.13-28.47,2.22-10.77,47.89-63.54-3.46,36.39-95.15-11.17,1.22,13.59-36.97,104.91-9.35Z" fill="#006"/><path d="M80.82,116.38c-.31-8.28,6.17-15,13.49-15s13.49,6.72,13.49,15-6.04,15-13.49,15c-7.36-.36-13.19-6.83-13.49-15Z" fill="#8d5524"/><path d="M91.34,119.06c1.5-.24,1.42-1.48,1.28-2.52-.26-1.89-3.13-2.38-4.18-.56-.95,1.53.93,3.38,2.9,3.08Z"/><path d="M98.8,118.86c1.5-.24,1.42-1.48,1.28-2.52-.26-1.89-3.13-2.38-4.18-.56-.95,1.53.93,3.38,2.9,3.08Z"/><path d="M90.11,125.13c1.68,0,3.35.04,4.98-.11,1.33-.11,2.4-.59,3.62-.73.38.46-.55,1.18-.93,1.6-.46.44-.8.91-1.79.81-1.42-.12-5.98-.66-5.96-1.61" fill="#c33"/><path d="M86.58,153.76c-2.56,4.81-.71,12.77-.29,18.16-4.22-.22-9.33-.46-11.92,3.78-3.47,5.64,2.65,8.67,7.29,9.14,4.42.45,9.78-.15,11.51-5.11,1.69-5-2.19-10.23-1.71-15.38.61-5.51,2.73-10.78-4.47-10.75l-.42.14Z" fill="#8d5524"/><path d="M102.54,131c2.6-1.19,3.02-.61,5.68-1.33,3.04-.73,6.12-1.3,9.17-2.07,1.34-.35,3.01-1.24,4.36-1.1,1.17-5.31,6.76-10.14,11.19-6.33,4.61,4.08,1.68,11.62-3.44,12.14-2.71.31-5.2-.81-7.61-2.23-2.7,1.98-6.51,2.36-9.46,3.53-3,1.17-7.32,1.74-9.84,3.42-.06-1.98-.06-1.25-.11-3.15l.06-2.88Z" fill="#8d5524"/><path d="M102.23,153.75c2.56,4.81.71,12.77.29,18.16,4.22-.22,9.33-.46,11.92,3.78,3.47,5.64-2.65,8.67-7.29,9.14-4.42.45-9.78-.15-11.51-5.11-1.69-5,2.19-10.23,1.71-15.38-.61-5.51-2.73-10.78,4.47-10.75l.42.14Z" fill="#8d5524"/><path d="M86.32,131c-2.6-1.19-3.02-.61-5.68-1.33-3.04-.73-6.12-1.3-9.17-2.07-1.34-.35-3.01-1.24-4.36-1.1-1.17-5.31-6.76-10.14-11.19-6.33-4.61,4.08-1.68,11.62,3.44,12.14,2.71.31,5.2-.81,7.61-2.23,2.7,1.98,6.51,2.36,9.46,3.53,3,1.17,7.32,1.74,9.84,3.42.06-1.98.06-1.25.11-3.15l-.06-2.88Z" fill="#8d5524"/><path d="M104.53,110.42c.22,1.02,1.18,1.78,1.52,2.77.39,1.13.2,2.48.74,3.54.52,1.02.85,11.03,1.91,10.61.76-.3,1.69-10.1,1.77-10.91.18-1.91-.08-3.85-.77-5.64-.44-1.14-1.05-2.21-1.57-3.33-.37-.8-.69-1.62-1.17-2.35-.6-.93-1.35-2.33-2.24-2.99-1.16-.85-3.24-1.19-4.57-1.66-2.06-.72-3.46-1.07-5.69-1-1.27.04-2.55-.04-3.8.23s-2.47.65-3.63,1.13c-1.17.48-2,.76-3.12,1.39s-1.9,1.97-2.63,3c-.63.9-1.64,1.65-1.94,2.78-.33,1.23-.54,2.51-.83,3.67-.21.84-.18,3.22,0,5.93.27,4.17.88,9.11,1.45,10.31,1.33.21,1.93-10.01,2.01-11.35.1-1.73.18-2.67.65-3.93.2-.55,1.62-1.7,2.07-2.05s3.02-1.67,3.52-1.93c2.29-1.19,5.16-1.14,7.01-.77.46.09,1.2-.15,3.6.11,2.8.31,5.68,2.23,5.73,2.43Z"/><path d="M81.41,157.8c9.6,1.51,18.95.41,25.59.25,1.17-.03,1.68-.4.81-1.66-1.41-2.04-3.29-6.59-4.42-9.12-.18-.4-7.42-.01-8.19-.01-2.58,0-5.16,0-7.74-.01-1.42,0-1.62-.08-2.31,1.04-.58.95-1.06,1.98-1.51,2.98-.95,2.11-4.49,6.17-2.23,6.53Z"/><path d="M103.74,147.55c.27-.2.05-.4,0-.68-.57-2.58-.53-4.78-.68-7.08-.04-.65-.06-1.33.3-1.89s1.58.08,1.86-.57c.91-2.11-.09-4.91-.06-7.37-1.69-.54-3.51.19-5.25.61s-3.59.93-5.43.92-3.7-.56-5.44-1.08c-1.02-.3-2.02-.69-3.09-.8-.55-.06-1.11-.04-1.66-.02-.21,0-.45.02-.59.16-.11.11-.12.27-.13.42-.12,2.39-1.87,5.32-.35,7.16.5.61,1.56.23,2.35.34-.24,2.28-.27,4.58-.11,6.87.04.61-.13,2.33.35,2.81.58.58,2.25.27,3.08.26,1.46,0,13.97.6,14.86-.06Z" fill="#fff000"/><path d="M59.43,118.77c1.63-13.35,4.3-39.39,12.73-52.86,7.82-12.5,21.46-12.94,22.35-12.92,6.47.15,17.04,2.58,21.85,7.75,6.85,7.35,10.01,18.39,12.2,28.21,2.34,10.52,2.49,20.1,1.25,29.85,5.45-14.74,2.52-23.96.11-36.69s-11.04-25.82-20.32-29.89c-4.32-1.9-11.16-2.53-15.1-2.81-18.78-1.31-29.61,16.89-33.85,36.93-2.18,10.31-3.42,20.53-1.49,31.87" fill="red"/><path d="M222.99,120.92c-.31-8.28,6.17-15,13.49-15s13.49,6.72,13.49,15-6.04,15-13.49,15c-7.36-.36-13.19-6.83-13.49-15Z" fill="#ffcc94"/><path d="M231.13,117.95c1.18-.52,2.35.04,2.81,1.22.78,2.11-.57,2.99-2.45,2.82-2.34-.21-2.4-3-.36-4.03Z" fill="#093"/><path d="M238.47,117.45c1.18-.52,2.35.04,2.81,1.22.78,2.11-.57,2.99-2.45,2.82-2.34-.21-2.4-3-.36-4.03Z" fill="#093"/><path d="M230.64,127.28c2.02.5,8.31,2.39,10.08-1.22-1.02,3.55-1.73,4.43-4.52,4.41-2.41-.09-3.66-1.43-5.44-3.16l-.12-.03Z" fill="red"/><path d="M223.64,125.03c-.66-5.65.16-6.55,3.04-11.54,2.5-4.33,7.76-5.14,12.57-3.82s9.23,4.82,10.47,9.66c.44,1.73.53,3.95,2.11,4.78,1.94,1.02,3.89.2,5.32-1.24,1.2-1.2,1.6-3.3,1.41-5.32-.08-.82-.22-1.67-.69-2.35s-1.6-1.63-2.39-1.37c2.07-.87,2.11-4.21-.17-5.93-.85-.64-4.35-2.65-4.75-1.66,1.73-3.08-3.92-5.29-7.08-5.77-1.16-.18-3.1.19-2.89,1.68-.27-2.04-2.32-1.88-4.48-2.03-1.13-.08-5.05.56-4.02,2.03-.9-2.03-4.7-1.7-7.29-.32-.87.46-2.96,2.1-3.31,3.02s.02,2.15.95,2.46c-2.38-1.15-4.63.82-5.76,2.82-.13.23-1.65,3.37-1.34,4.63s1.53,1.59,2.94,1.69c-3.38-.54-4.7,2.5-5.08,5.02-.15.98-.02,2.04.57,2.83s1.75,1.19,2.63.74c-1.03.8-1.63,1.36-.09,3.46.77,1.05,2.45,1.06,3.64.52s3.77-3.19,3.68-4.01Z" fill="red"/><path d="M228.63,158.3c-2.56,4.81-.71,12.77-.29,18.16-4.22-.22-9.33-.46-11.92,3.78-3.47,5.64,2.65,8.67,7.29,9.14,4.42.45,9.78-.15,11.51-5.11,1.69-5-2.19-10.23-1.71-15.38.61-5.51,2.73-10.78-4.47-10.75l-.42.14Z" fill="#ffcc94"/><path d="M244.59,135.54c2.6-1.19,3.02-.61,5.68-1.33,3.04-.73,6.12-1.3,9.17-2.07,1.34-.35,3.01-1.24,4.36-1.1,1.17-5.31,6.76-10.14,11.19-6.33,4.61,4.08,1.68,11.62-3.44,12.14-2.71.31-5.2-.81-7.61-2.23-2.7,1.98-6.51,2.36-9.46,3.53-3,1.17-7.32,1.74-9.84,3.42-.06-1.98-.06-1.25-.11-3.15l.06-2.88Z" fill="#ffcc94"/><path d="M244.28,158.29c2.56,4.81.71,12.77.29,18.16,4.22-.22,9.33-.46,11.92,3.78,3.47,5.64-2.65,8.67-7.29,9.14-4.42.45-9.78-.15-11.51-5.11-1.69-5,2.19-10.23,1.71-15.38-.61-5.51-2.73-10.78,4.47-10.75l.42.14Z" fill="#ffcc94"/><path d="M228.37,135.54c-2.6-1.19-3.02-.61-5.68-1.33-3.04-.73-6.12-1.3-9.17-2.07-1.34-.35-3.01-1.24-4.36-1.1-1.17-5.31-6.76-10.14-11.19-6.33-4.61,4.08-1.68,11.62,3.44,12.14,2.71.31,5.2-.81,7.61-2.23,2.7,1.98,6.51,2.36,9.46,3.53,3,1.17,7.32,1.74,9.84,3.42.06-1.98.06-1.25.11-3.15l-.06-2.88Z" fill="#ffcc94"/><path d="M254.27,166.58c.25-1.67-1.71-5.68-3.04-8.42-1.12-2.3-2.3-4.58-2.74-7.1-.86-4.89-2.73-9.34-3.48-14.25-.1-.68-.01-1.21-.42-1.27-.91-.14-1.08.05-2.07.05-1.83,0-3.64.34-5.52.33-2.21-.01-4.41-.08-6.47-.77-.56-.18-1.2-.2-1.79-.04-.38.1-.73.28-1.02.52-.28.24-.43.59-.56.93-3.3,8.14-4.57,16.99-8.34,24.96-.62,1.31-2.1,3-.65,4.1,1.06.81,4.09.32,5.31.35,4.86.1,9.71.19,14.57.29,1.36.03,16.18.54,16.21.32Z" fill="#f0f"/><path d="M270.16,137.08c-1.33,4.38-1.91,9.4,2.54,12.36-.54-2.22-2.51-3.94-2.83-6.19-.19-1.51,2.3-5.97.43-6.04l-.14-.12Z" fill="#093"/><path d="M275,124.26c.78-3.15,6.94-15.18,1.59-17.15-1.33-.52-3.34.43-4.6.91,2.53-2.81,5.47-2.81,7.12.97,1.47,3.38.08,7.2-1.34,10.4-.75,1.66-1.65,3.18-2.63,4.74l-.15.14Z" fill="#093"/><path d="M269.36,112.63c-2.31-.25-3.47-5.17-1.34-6.33,3.1-1.68,5.57,6.83,1.34,6.33Z" fill="#fff000"/><path d="M270.71,106.13c.46-1.96,1.47-6.86,3.78-7.42,3.54-.85.69,4.78-.47,5.82-.97.87-2.13,1.39-3.31,1.75v-.15Z" fill="#f0f"/><path d="M268.39,105.74c-2.23-2.71-2.88-7.24-.24-10.09,3.32-3.6,3.1,3.34,2.63,5.23-.37,1.78-1.1,3.39-2.12,4.86h-.28Z" fill="#f0f"/><path d="M266.62,107.01c-2.88-.59-6.57-1.45-7.69-4.7-1.61-4.79,4.18-3.08,5.85-.51.99,1.53,1.47,3.42,2.12,5.09l-.28.12Z" fill="#f0f"/><path d="M266.62,109.19c-1.42-.3-4.33-1.14-5.62.01-.81.67-1.03,1.83-.11,2.54,1.64,1.31,4.22-1.47,5.49-2.32l.23-.24Z" fill="#f0f"/><path d="M267.15,111.19c-2.97,1.7-6.02,6.09-5.95,9.63.08,4.79,4.46-3.1,5.05-4.45.63-1.53,1.13-3.11,1.03-4.8l-.13-.38Z" fill="#f0f"/><path d="M269.68,112.86c-.86,2.18-3.06,7.7-1.32,9.91,2.04,2.74,3.34-3.96,3.27-5.44-.07-1.67-.65-3.1-1.84-4.35l-.12-.11Z" fill="#f0f"/><path d="M271.57,112.08c.67,1.25,3.24,6.4,5.2,3.65,2.03-2.81-3.37-3.76-4.82-3.78l-.39.13Z" fill="#f0f"/><path d="M271.96,109.94c1.1.34,5.05,1.63,4.46-.88-.52-2.33-3.43-.62-4.2.5l-.26.38Z" fill="#f0f"/><path d="M457.18,174.07c.99,7.67-4.66,14.48-11.68,15.11-6.85.62-13.51-5.07-14.2-12.77-.66-7.31,4.53-14.46,11.68-15.11,7.09-.3,13.23,5.21,14.2,12.77Z" fill="#ffe0bd"/><path d="M448.74,138.31c2.11-5.03-.44-12.78-1.35-18.11,4.23-.16,9.33-.38,11.53-4.84,2.95-5.93-3.42-8.39-8.08-8.45-4.44-.05-9.73,1.03-11.01,6.12-1.23,5.13,3.11,9.99,3.09,15.16-.11,5.55-1.74,10.98,5.42,10.3l.4-.18Z" fill="#ffe0bd"/><path d="M433.16,139.73c-2.98-4.56-1.86-12.65-1.92-18.06-4.19.6-9.25,1.3-12.21-2.69-3.97-5.31,1.86-8.87,6.43-9.76,4.36-.85,9.76-.74,11.93,4.05,2.13,4.83-1.26,10.38-.32,15.47,1.1,5.44,3.69,10.49-3.48,11.1l-.43-.11Z" fill="#ffe0bd"/><path d="M449.23,160.39c1.38,2.51,2.06,2.29,3.77,4.46,2.01,2.4,4.13,4.7,6.12,7.13.87,1.08,1.68,2.79,2.84,3.49-2.23,4.96-.63,12.17,5.2,11.76,6.13-.52,8.29-8.32,4.49-11.79-1.99-1.87-4.65-2.45-7.44-2.75-.98-3.2-3.82-5.78-5.49-8.48-1.7-2.73-4.83-5.77-5.85-8.62-1.22,1.55-.8.97-1.97,2.46l-1.67,2.34Z" fill="#ffe0bd"/><path d="M432.82,144.59c-.6-2.1-.86-4.31-1.21-6.55-.3-1.9-.53-3.83-.73-5.76-.17-1.65-.31-3.31-.44-4.96-.15-1.8.02-3.62-.14-5.37,2.73-.24,4.86-.43,7.59-.67.05,2.55.42,5.3.68,8.05.23,2.37.04,1.37.4,3.55.17,1.03.82,2.34,1.72,3.18.3-1.57.44-1.71.51-3.04s.07-3.71-.04-4.99-.27-2.45-.49-3.78c-.16-1-.15-1.99-.25-3.2,3.45.06,4.29-.33,7.64-.54.14,1.65.44,3.63.72,5.62s.73,3.96.78,5.61.39,3.4.56,5.31c.12,1.38.21,2.87.15,4.56-.02.68-.16,1.04-.42,1.25-.44.34-.95.19-2.18.31-1.63.16-3.26.32-4.89.48-.44.04-2.86.35-5.19.61s-4.75.49-4.79.37Z" fill="#006"/><path d="M436.46,161.54c-.91,2.71-1.62,2.62-2.91,5.06-1.54,2.72-3.22,5.36-4.74,8.11-.66,1.22-1.15,3.05-2.17,3.94,3.08,4.48,2.8,11.86-3.01,12.5-6.13.59-9.65-6.7-6.53-10.8,1.62-2.19,4.13-3.25,6.82-4.04.39-3.32,2.72-6.37,3.88-9.33,1.19-2.99,3.72-6.54,4.21-9.53,1.48,1.31.96.81,2.38,2.07l2.06,2Z" fill="#ffe0bd"/><path d="M432.8,144.31c-.65,1.95.78,3.97,1.01,6.03.18,1.67.03.33,0,2.53,0,.28-.7,1.93-.79,2.19-.11.35-.86,2.07-1,2.41-.05.14.55,1.11.68,1.25,1.22,1.35.64.69,1.59,2.44.07.13.45,1.57.57,1.66.1.07.41,1.02.53,1.01,1.02-.11,1.91-.62,2.78-1.08,1.16-.61,2.31-1.2,3.66-1.36.94-.11,1.88-.11,2.83-.11,2.38,0,4.78.61,5.36.22.69-.47,1.01-1.88,1.58-3.25.17-.42,1.43-2.24,1.28-2.66s-1.21-1.66-1.52-2.34c-.65-2.11-.63-2.74-.76-4.72-.07-1.02.17-1.89.05-2.91-.06-.56-.02-2.42-.41-2.81-.66-.67-4.33.24-5.3.33l-5.81.56c-.67.06-6.18.19-6.32.61Z" fill="red"/><path d="M442.74,172.9c2.29.4,5.2-3.68,2.88-5.52-3.47-2.79-6.62,4.89-2.88,5.52Z"/><path d="M439.14,177.47c.67-.98,3.89-1.86,3.36.17-.51,2.02-2.8.78-3.39-.42"/><path d="M449.78,176.54c-.86-.89-4.19-1.16-3.3.74.87,1.9,2.84.26,3.28-1.03"/><path d="M443.96,184.28c2.39-.14,3.96-.79,6.58-1.11,1.75-.22,2.92-1.16,5.64-2,.06.95.17,1.52.17,2.05,0,.7.12,1.02.4,2.08-.36-.14-.92.58-.92.58,0,0-.81-.25-1.19-.37-.27-.08-.52.79-.54,1-.12,1.34-.15.66-.12.98-.45-.32-.66-.13-1.33-.24-.28-.04-.63-.14-1.12-.34-.28,1-1.06.21-1.44,1.36-.51-.7-1.16.48-2.31.7-1.32.12-.94.09-1.94.17.62-.05-.35.03-1.68.16-1.07.1-.41.04-1.77.15-.52-.71-1.23.13-1.68-.72-.75.82-1.62-.68-2.01.14-.52-1.05-1.09.04-1.43-.98-1.12.92-1-.22-2.12.79.02-.23-.57-1.1-1.01-2.52-.24-.8-.44-2.11-.47-3,0,0,3.07,1.42,4.77,1.13,1.38-.23,4.11.06,5.52-.02Z"/><path d="M160.26,431.34c-.31-8.28,6.17-15,13.49-15s13.49,6.72,13.49,15-6.04,15-13.49,15c-7.36-.36-13.19-6.83-13.49-15Z" fill="#e0ac69"/><path d="M169.54,432.67c.96-1.72-4.1-4.7-4.13-.58-.04,3.12,3.11,2.48,4.13.58Z"/><path d="M176.49,430.55c.96-1.72-4.1-4.7-4.13-.58-.04,3.12,3.11,2.48,4.13.58Z"/><path d="M160.93,426.3c4.12-1.56,8.47-4.25,12.87-4.41,3.5-.12,8.83,2.03,11.97,2.45-.28-2.85-.67-6.15-3.24-6.91-3.4-.99-5.66-2.22-8.73-2.22-2.86.12-7.96,2.49-10.06,3.75-2.55,1.56-3.39,4.29-2.81,7.33h0Z"/><path d="M170.92,439.76c.75.01,1.47-.11,2.28-.4,1.5-.49,2.89-.78,4.41-1.85-.86,3.02-2.74,3.9-4.33,4.07-1.18.19-2.32.22-3.35-.14-.32-.11-1.27-.34-.93-1.21.41-1.05,1.53-.41,1.92-.47Z" fill="#c33"/><path d="M181.82,445.95c2.6-1.19,3.02-.61,5.68-1.33,3.04-.73,6.12-1.3,9.17-2.07,1.34-.35,3.01-1.24,4.36-1.1,1.17-5.31,6.76-10.14,11.19-6.33,4.61,4.08,1.68,11.62-3.44,12.14-2.71.31-5.2-.81-7.61-2.23-2.7,1.98-6.51,2.36-9.46,3.53-3,1.17-7.32,1.74-9.84,3.42-.06-1.98-.06-1.25-.11-3.15l.06-2.88Z" fill="#e0ac69"/><path d="M165.6,445.95c-2.6-1.19-3.02-.61-5.68-1.33-3.04-.73-6.12-1.3-9.17-2.07-1.34-.35-3.01-1.24-4.36-1.1-1.17-5.31-6.76-10.14-11.19-6.33-4.61,4.08-1.68,11.62,3.44,12.14,2.71.31,5.2-.81,7.61-2.23,2.7,1.98,6.51,2.36,9.46,3.53,3,1.17,7.32,1.74,9.84,3.42.06-1.98.06-1.25.11-3.15l-.06-2.88Z" fill="#e0ac69"/><path d="M182.65,464.3c.22-.18-.07-1.24-.05-2.2.04-1.88-.54-6.22-.66-8.88-.01-.27-.12-.85,0-1.1.11-.23.61-.09.75-.3.3-.44.27-1.02.23-1.55-.11-1.49-.21-2.97-.32-4.46-.02-.3.06-.53-.19-.68-.17-.1-.51-.18-.71-.15-.97.18-1.92.28-2.88.51-1.54.36-3.01.98-5.07.85-3.96-.26-8.5-1.46-8.7-1.26-.58.57-1.07,6.03-.53,6.93.29.48.69-.23.87.08s.15.7.1,1.06c-.3,2.42-.49,4.85-.55,7.29-.02.72-.64,3.14-.2,3.71s2.31.08,2.97.08c3.31.02,8.58,0,11.91.03,1.68.01,2.64.36,3.03.04Z" fill="#093"/><path d="M219.7,365.79c3.08-16.69,7.77-43.71,7.2-48.17-1.86,3.35-12.05,63.7-13.92,75.44-1.92,12.03-6.14,37.24-4.24,40.02" fill="#006"/><path d="M157.28,351.87c3.06-16.68,9.81-35.75,9.26-40.2-1.88,3.36-14.11,55.72-15.99,67.49-1.9,12.02-11.59,52.1-9.71,54.89" fill="#006"/><path d="M205.2,457.63c.75-5.02,2.27-8.6,1.7-10.24-1.86,1.24-2.83,10.08-3.39,16.07-.44,4.68-1.63,11.19.24,12.19" fill="#006"/><path d="M140.14,458.31c-.55-5.14.49-9.43-.47-10.92-1.5,1.68-.65,11.05.33,17.09.77,4.76,1.15,10.61,3.21,11.17" fill="#006"/><path d="M167.36,466.35c-4.93-2.32-12.79-.09-18.15.6.01-4.23,0-9.34-4.36-11.72-5.8-3.19-8.53,3.07-8.78,7.72-.23,4.43.62,9.77,5.66,11.25,5.07,1.44,10.11-2.69,15.27-2.46,5.54.34,10.9,2.2,10.51-4.98l-.16-.41Z" fill="#e0ac69"/><path d="M143.33,480.22c2.7,1.69,6.98.12,11.72-.01,7.9-.23,17.1-.03,22.4-.22,3.36-.14,25.35,2.21,26.57-2.27,1.1-4.16-14.72-4.85-17.36-5.04-9.96-.86-20.49-.86-30.6-.17-1.81.11-20.79,2.72-12.74,7.71Z" fill="red"/><path d="M169.15,469.94c-5.25,1.49-9.7,8.33-13.3,12.37-2.77-3.2-6.13-7.05-10.98-5.97-6.47,1.4-4.42,7.92-1.55,11.59,2.73,3.5,6.88,6.96,11.66,4.77,4.78-2.24,5.86-8.66,9.9-11.89,4.4-3.38,9.66-5.5,4.66-10.66l-.39-.2Z" fill="#e0ac69"/><path d="M181.18,464.32c.41.02.85-.05,1.14.24.31.3.35.99.44,1.41.27,1.2.24,2.03.26,3.15.02.99-.09,2.03-.25,3.16-.03.24,0,.52-.15.71-.13.17-.34.25-.55.32-1.02.35-2.05.67-3.08.95-1.37.37-2.75.69-4.15.95-1.4.26-2.48.58-3.96,1.42-.56.32-1.04,1.21-1.69,1.22-.7.02-1.15-.47-1.7-.9-1.05-.81-4.02-1.74-4.24-3.54-.03-.21.87-1.12,1-1.28-.6.01-1.2.02-1.79.03-.25,0-.53,0-.72-.16-.22-.19-.24-.52-.24-.82,0-1.47-.01-2.93-.02-4.4,0-.5.02-1.06.4-1.38.23-.2.55-.27.85-.32.79-.12,1.56-.44,2.3-.55,2.36-.34,4.55-.38,6.88-.4s4.58.05,6.89.14c.8.03,1.55.05,2.37.05Z" fill="#006"/></svg>