<?xml version="1.0" encoding="UTF-8"?><svg id="Layer_1" xmlns="http://www.w3.org/2000/svg" viewBox="0 0 776.15 1020"><path d="M544.76,401.1c2.12-57.86,2.54-120.48-26.51-183.99-23.91-52.28-76.81-95.02-134.2-91.55-55.35,3.35-100.9,48.96-121.2,100.56-20.31,51.59-22.6,119.54-22.41,174.99" fill="none" stroke="#000" stroke-miterlimit="10" stroke-width="20"/><path d="M114.47,401.1c-13.73-112.54,11.33-247.13,95.55-323.04C270.57,23.49,357.13-.11,437.42,14.01c80.29,14.13,152.91,65.03,195.51,134.54,42.59,69.51,49.03,166.35,33.72,252.55" fill="none" stroke="#000" stroke-linecap="round" stroke-linejoin="round" stroke-width="20"/><path d="M347.05,731.26c-34.01-12.75-49.01-56.45-37.44-90.88,6.85-20.4,22.38-39.44,41.89-48.54,19.51-9.1,41.71-8.24,62.06-1.23,7.36,2.53,14.79,6.53,20.76,11.52,21.88,18.32,36.29,45.38,33.3,74.08-2.99,28.7-21.47,55.09-51.15,63.02.63,21.09,2.05,40.76-3.28,57.49-4.46,13.97-14.86,26.8-29.51,27.65-10.46.61-22.11-6.76-27.36-15.83-5.25-9.07-5.8-19.78-6.61-30.23-1.17-15.1.93-22.03.46-27.72-1.26-15.37,3.91-16.69-3.13-19.33Z" fill="none" stroke="#000" stroke-linecap="round" stroke-linejoin="round" stroke-width="20"/><rect x="10" y="401.1" width="756.15" height="608.9" rx="50" ry="50" fill="none" stroke="#000" stroke-linecap="round" stroke-linejoin="round" stroke-width="20"/></svg>