<?xml version="1.0" encoding="UTF-8"?><svg id="Layer_1" xmlns="http://www.w3.org/2000/svg" viewBox="0 0 542.98 1015.9"><path d="M416.57,990.04c-147.5,0-147.5-.76-295-.76-49.5,0-90.69-39.47-90.69-88.97,0-194.5,1.13-194.5,1.13-389,0-194.5.88-194.5.88-389,0-49.5,39.19-88.32,88.69-88.32,147.5,0,147.5-2.41,295-2.41,49.5,0,91.15,41.24,91.15,90.74,0,194.5-.89,194.5-.89,389,0,194.5-1.79,194.5-1.79,389,0,49.5-38.97,89.73-88.47,89.73Z" fill="none" stroke="#fff" stroke-width="15"/><path d="M423.57,1008.4c-152.5,0-152.5-1.83-305-1.83-60.5,0-109.2-48.77-109.2-109.27,0-195-1.86-195-1.86-390,0-195,1.96-195,1.96-390C9.46,56.81,58.07,7.56,118.57,7.56q152.5,0,305-.06c60.5,0,111.28,49.31,111.28,109.81,0,195,.63,195,.63,390s-3.89,195-3.89,390c0,60.5-47.53,111.1-108.03,111.1Z" fill="none" stroke="#fff" stroke-width="15"/></svg>