<?xml version="1.0" encoding="UTF-8"?><svg id="Layer_1" xmlns="http://www.w3.org/2000/svg" viewBox="0 0 542.09 1014.01"><path d="M417.25,982.51c-147.5,0-147.5-.45-295-.45-49.5,0-89.42-38.92-89.42-88.42,0-194.5-1.83-194.5-1.83-389,0-194.5,2.5-194.5,2.5-389,0-49.5,39.26-89.54,88.76-89.54,147.5,0,147.5-1.66,295-1.66,49.5,0,90.54,41.7,90.54,91.2q0,194.5-.33,389c0,194.5,1.58,194.5,1.58,389,0,49.5-42.29,88.87-91.79,88.87Z" fill="#b19cd9"/><path d="M417.25,982.51c-147.5,0-147.5-.45-295-.45-49.5,0-89.42-38.92-89.42-88.42,0-194.5-1.83-194.5-1.83-389,0-194.5,2.5-194.5,2.5-389,0-49.5,39.26-89.54,88.76-89.54,147.5,0,147.5-1.66,295-1.66,49.5,0,90.54,41.7,90.54,91.2q0,194.5-.33,389c0,194.5,1.58,194.5,1.58,389,0,49.5-42.29,88.87-91.79,88.87Z" fill="none" stroke="#fff" stroke-width="15"/><path d="M423.25,1006.51c-152.5,0-152.5-.44-305-.44-60.5,0-109.41-49.93-109.41-110.43,0-195-1.34-195-1.34-390s2.68-195,2.68-390C10.18,55.14,57.75,7.5,118.25,7.5q152.5,0,305,.04c60.5,0,109.06,47.6,109.06,108.1,0,195,1.66,195,1.66,390s.63,195,.63,390c0,60.5-50.84,110.87-111.34,110.87Z" fill="none" stroke="#fff" stroke-width="15"/><rect x="207.94" y="60.2" width="125" height="20" rx="10" ry="10" transform="translate(-.24 .94) rotate(-.2)" fill="none" stroke="#fff" stroke-width="20"/></svg>