<?xml version="1.0" encoding="UTF-8"?><svg id="Layer_1" xmlns="http://www.w3.org/2000/svg" viewBox="0 0 1020.3 722.57"><polyline points="431.82 168.25 209.7 167.88 209.88 357.35 209.6 555.42 431.82 554.26" fill="none" stroke="#000" stroke-linecap="round" stroke-linejoin="round" stroke-width="40"/><line x1="210.35" y1="355.81" x2="403.95" y2="355.81" fill="none" stroke="#000" stroke-linecap="round" stroke-linejoin="round" stroke-width="40"/><path d="M802.19,205.63c-111.51-86.84-245.54-34.55-243.17,52.28,4,146.66,247.73,53.9,251.06,209.13,1.58,73.68-134.2,145.36-261.65,44.05" fill="none" stroke="#000" stroke-linecap="round" stroke-linejoin="round" stroke-width="40"/><path d="M979.95,712.4q-156.67,0-313.33.16c-156.67,0-156.67-2.09-313.33-2.09s-156.67-.67-313.33-.67c-16.5,0-28.76-12.04-28.76-28.54,0-160-1.2-160-1.2-320s.71-160,.71-320c0-16.5,12.74-29.78,29.24-29.78,156.67,0,156.67-.94,313.33-.94s156.67-.55,313.33-.55,156.67,3.14,313.33,3.14c16.5,0,29.07,11.63,29.07,28.13,0,160,.49,160,.49,320s.79,160,.79,320c0,16.5-13.85,31.14-30.35,31.14Z" fill="none" stroke="#000" stroke-linecap="round" stroke-linejoin="round" stroke-width="20"/></svg>