<?xml version="1.0" encoding="UTF-8"?><svg id="Layer_1" xmlns="http://www.w3.org/2000/svg" viewBox="0 0 717.33 1017.39"><rect x="8.32" y="8.33" width="700" height="1000" rx="50" ry="50" fill="none" stroke="#fff" stroke-linecap="round" stroke-linejoin="round" stroke-width="10"/><path d="M628.32,960.07c-135,0-135-3.07-270-3.07s-135,.46-270,.46c-16.5,0-31.52-12.63-31.52-29.13,0-140,2-140,2-280,0-140,1.24-140,1.24-280,0-140-2.83-140-2.83-280,0-16.5,14.61-28.33,31.11-28.33,135,0,135-2.25,270-2.25s135-.95,270-.95c16.5,0,29.27,15.03,29.27,31.53,0,140,1.68,140,1.68,280q0,140,.03,280c0,140-2.19,140-2.19,280,0,16.5-12.29,31.74-28.79,31.74Z" fill="#6bb8d3"/><path d="M628.32,960.07c-135,0-135-3.07-270-3.07s-135,.46-270,.46c-16.5,0-31.52-12.63-31.52-29.13,0-140,2-140,2-280,0-140,1.24-140,1.24-280,0-140-2.83-140-2.83-280,0-16.5,14.61-28.33,31.11-28.33,135,0,135-2.25,270-2.25s135-.95,270-.95c16.5,0,29.27,15.03,29.27,31.53,0,140,1.68,140,1.68,280q0,140,.03,280c0,140-2.19,140-2.19,280,0,16.5-12.29,31.74-28.79,31.74Z" fill="none" stroke="#fff" stroke-linecap="round" stroke-linejoin="round" stroke-width="15"/><path d="M658.32,1008.45c-150,0-150-.67-300-.67s-150,2.11-300,2.11c-27.5,0-48.55-24.06-48.55-51.56,0-150-1.51-150-1.51-300,0-150-.76-150-.76-300s1.39-150,1.39-300C8.89,30.83,30.82,7.5,58.32,7.5c150,0,150,.82,300,.82s150-.14,300-.14c27.5,0,50.61,22.66,50.61,50.16,0,150-2.42,150-2.42,300,0,150,.83,150,.83,300s2.49,150,2.49,300c0,27.5-24.01,50.12-51.51,50.12Z" fill="none" stroke="#fff" stroke-linecap="round" stroke-linejoin="round" stroke-width="15"/><path d="M286.56,575.91c-14.73,0-27.52-3.08-38.35-9.23-10.83-6.15-19.16-14.52-24.96-25.09-5.81-10.57-8.71-22.53-8.71-35.88,0-15.6,3.16-28.9,9.49-39.91,6.33-11,14.6-19.46,24.83-25.35,10.23-5.89,21.06-8.84,32.5-8.84,8.84,0,17.2,1.82,25.09,5.46,7.89,3.64,14.86,8.62,20.93,14.95,6.07,6.33,10.88,13.65,14.43,21.97,3.55,8.32,5.33,17.16,5.33,26.52-.17,4.16-1.82,7.54-4.94,10.14-3.12,2.6-6.76,3.9-10.92,3.9h-99.32l-7.8-26h95.42l-5.72,5.2v-7.02c-.35-5.03-2.12-9.53-5.33-13.52-3.21-3.99-7.19-7.15-11.96-9.49-4.77-2.34-9.84-3.51-15.21-3.51s-10.05.69-14.56,2.08c-4.51,1.39-8.41,3.73-11.7,7.02-3.29,3.29-5.89,7.71-7.8,13.26-1.91,5.55-2.86,12.57-2.86,21.06,0,9.36,1.95,17.29,5.85,23.79,3.9,6.5,8.92,11.44,15.08,14.82,6.15,3.38,12.7,5.07,19.63,5.07,6.41,0,11.53-.52,15.34-1.56,3.81-1.04,6.89-2.3,9.23-3.77,2.34-1.47,4.46-2.73,6.37-3.77,3.12-1.56,6.07-2.34,8.84-2.34,3.81,0,6.98,1.3,9.49,3.9,2.51,2.6,3.77,5.63,3.77,9.1,0,4.68-2.43,8.93-7.28,12.74-4.51,3.82-10.83,7.15-18.98,10.01-8.15,2.86-16.55,4.29-25.22,4.29Z" fill="#fff"/><path d="M448.8,431.61c12.83,0,22.58,2.69,29.25,8.06,6.67,5.38,11.27,12.52,13.78,21.45,2.51,8.93,3.77,18.85,3.77,29.77v66.56c0,4.51-1.47,8.28-4.42,11.31-2.95,3.04-6.67,4.55-11.18,4.55s-8.23-1.51-11.18-4.55c-2.95-3.03-4.42-6.8-4.42-11.31v-66.56c0-5.72-.74-10.88-2.21-15.47-1.47-4.59-4.12-8.28-7.93-11.05-3.81-2.77-9.27-4.16-16.38-4.16s-12.78,1.39-17.55,4.16c-4.77,2.77-8.41,6.46-10.92,11.05-2.51,4.59-3.77,9.75-3.77,15.47v66.56c0,4.51-1.47,8.28-4.42,11.31-2.95,3.04-6.67,4.55-11.18,4.55s-8.23-1.51-11.18-4.55c-2.95-3.03-4.42-6.8-4.42-11.31v-107.38c0-4.5,1.47-8.27,4.42-11.31,2.95-3.03,6.67-4.55,11.18-4.55s8.23,1.52,11.18,4.55c2.95,3.04,4.42,6.8,4.42,11.31v11.18l-3.9-.78c1.56-2.95,3.81-6.11,6.76-9.49,2.95-3.38,6.41-6.54,10.4-9.49,3.99-2.95,8.49-5.33,13.52-7.15,5.03-1.82,10.49-2.73,16.38-2.73Z" fill="#fff"/></svg>