<?xml version="1.0" encoding="UTF-8"?><svg id="Layer_1" xmlns="http://www.w3.org/2000/svg" viewBox="0 0 717.59 1017.59"><path d="M628.63,958.44c-135,0-135,.87-270,.87q-135,0-270,.16c-16.5,0-29.12-14.43-29.12-30.93q0-140-.08-280c0-140-.39-140-.39-280s-.3-140-.3-280c0-16.5,13.39-31.55,29.89-31.55q135,0,270-.23c135,0,135,1.58,270,1.58,16.5,0,28.63,13.7,28.63,30.2,0,140,2.74,140,2.74,280,0,140-2.35,140-2.35,280q0,140-.05,280c0,16.5-12.47,29.9-28.97,29.9Z" fill="none" stroke="#fff" stroke-linecap="round" stroke-linejoin="round" stroke-width="15"/><path d="M658.63,1009.35q-150,0-300-.2c-150,0-150,.94-300,.94-27.5,0-50.47-24.05-50.47-51.55,0-150,.87-150,.87-300,0-150-1.52-150-1.52-300s1.24-150,1.24-300c0-27.5,22.39-50.16,49.89-50.16,150,0,150,.46,300,.46s150-1.35,300-1.35c27.5,0,49.64,23.55,49.64,51.05,0,150,1.18,150,1.18,300q0,150-.16,300c0,150,.79,150,.79,300,0,27.5-23.96,50.8-51.46,50.8Z" fill="none" stroke="#fff" stroke-linecap="round" stroke-linejoin="round" stroke-width="15"/></svg>