<?xml version="1.0" encoding="UTF-8"?><svg id="Layer_1" xmlns="http://www.w3.org/2000/svg" viewBox="0 0 710 1010"><rect x="55" y="55" width="600" height="900" rx="30" ry="30" fill="#6bb8d3" stroke="#fff" stroke-linecap="round" stroke-linejoin="round" stroke-width="10"/><rect x="5" y="5" width="700" height="1000" rx="50" ry="50" fill="none" stroke="#fff" stroke-linecap="round" stroke-linejoin="round" stroke-width="10"/><path d="M272.99,572.56c-13.36,0-24.88-2.73-34.57-8.2-9.69-5.47-17.13-13.24-22.32-23.32-5.2-10.08-7.79-22.03-7.79-35.86s2.58-25.35,7.73-35.51c5.16-10.16,12.46-18.09,21.91-23.79,9.45-5.7,20.55-8.55,33.28-8.55,8.59,0,16.6,1.37,24.02,4.1,7.42,2.74,13.95,6.86,19.57,12.36s10.02,12.4,13.18,20.68c3.16,8.28,4.75,18.05,4.75,29.3v9.84h-110.04v-22.03h92.81l-16.41,5.86c0-6.8-1.04-12.71-3.11-17.75-2.07-5.04-5.16-8.94-9.26-11.72-4.1-2.77-9.16-4.16-15.18-4.16s-11.27,1.41-15.53,4.22c-4.26,2.81-7.48,6.62-9.67,11.43-2.19,4.8-3.28,10.29-3.28,16.46v15.59c0,7.58,1.27,13.94,3.81,19.1,2.54,5.16,6.09,9.02,10.66,11.6s9.9,3.87,16,3.87c4.14,0,7.89-.59,11.25-1.76,3.36-1.17,6.23-2.91,8.61-5.21,2.38-2.3,4.2-5.14,5.45-8.5l31.88,5.98c-2.11,7.19-5.78,13.5-11.02,18.93-5.24,5.43-11.78,9.63-19.63,12.6-7.85,2.97-16.9,4.45-27.13,4.45Z" fill="#fff"/><path d="M391.93,494.16v75.82h-35.16v-131.02h33.16l.59,32.7h-2.11c3.44-10.94,8.65-19.39,15.64-25.37,6.99-5.98,16.03-8.96,27.13-8.96,9.06,0,16.97,1.97,23.73,5.92,6.76,3.95,11.99,9.61,15.7,16.99,3.71,7.38,5.57,16.19,5.57,26.43v83.32h-35.16v-77.23c0-8.12-2.09-14.49-6.27-19.1-4.18-4.61-9.98-6.91-17.4-6.91-4.92,0-9.32,1.07-13.18,3.22-3.87,2.15-6.88,5.25-9.02,9.32-2.15,4.06-3.22,9.02-3.22,14.88Z" fill="#fff"/><circle cx="355" cy="31.56" r="10" fill="none" stroke="#fff" stroke-linecap="round" stroke-linejoin="round" stroke-width="10"/></svg>