<?xml version="1.0" encoding="UTF-8"?><svg id="Layer_1" xmlns="http://www.w3.org/2000/svg" viewBox="0 0 710 1010"><rect x="55" y="55" width="600" height="900" rx="30" ry="30" fill="#3b82f6" stroke="#000" stroke-linecap="round" stroke-linejoin="round" stroke-width="10"/><rect x="5" y="5" width="700" height="1000" rx="50" ry="50" fill="none" stroke="#000" stroke-linecap="round" stroke-linejoin="round" stroke-width="10"/><path d="M250.18,597.73c-18.8,0-34.97-3.89-48.5-11.68-13.54-7.79-23.93-18.64-31.18-32.55-7.25-13.91-10.88-30.1-10.88-48.58s3.63-34.83,10.88-48.74c7.25-13.91,17.64-24.76,31.18-32.55,13.54-7.79,29.7-11.68,48.5-11.68s34.97,3.9,48.5,11.68c13.54,7.79,23.9,18.64,31.1,32.55,7.2,13.91,10.8,30.16,10.8,48.74s-3.6,34.67-10.8,48.58c-7.2,13.91-17.56,24.76-31.1,32.55-13.54,7.79-29.7,11.68-48.5,11.68ZM250.18,554.71c7.2,0,13.27-2.09,18.21-6.28,4.94-4.19,8.67-10.04,11.2-17.56,2.52-7.52,3.79-16.27,3.79-26.27s-1.26-18.72-3.79-26.18c-2.52-7.46-6.26-13.24-11.2-17.32-4.94-4.08-11.01-6.12-18.21-6.12s-13.27,2.04-18.21,6.12c-4.94,4.08-8.68,9.86-11.2,17.32-2.53,7.47-3.79,16.19-3.79,26.18s1.26,18.75,3.79,26.27c2.52,7.52,6.26,13.37,11.2,17.56,4.94,4.19,11.01,6.28,18.21,6.28Z" fill="#fff"/><path d="M427.11,491.55v102.8h-56.24v-180.15h52.85l1.13,45.44h-2.42c4.4-14.29,11.3-25.81,20.71-34.56,9.4-8.75,22.05-13.13,37.95-13.13,12.57,0,23.53,2.79,32.87,8.38,9.35,5.59,16.6,13.48,21.75,23.69,5.16,10.21,7.73,22.08,7.73,35.61v114.73h-56.24v-103.77c0-10.1-2.58-18.02-7.73-23.77-5.16-5.75-12.35-8.62-21.59-8.62-6.02,0-11.36,1.32-16.03,3.95-4.67,2.63-8.3,6.42-10.88,11.36-2.58,4.94-3.87,10.96-3.87,18.05Z" fill="#fff"/><circle cx="355" cy="31.56" r="10" fill="none" stroke="#000" stroke-linecap="round" stroke-linejoin="round" stroke-width="10"/></svg>